<svg width="30" height="30" viewBox="0 0 30 30" fill="none" xmlns="http://www.w3.org/2000/svg">
<path d="M16.5892 7.6814C16.5892 7.96796 16.5892 8.90197 16.5892 10.2289H21.4773L20.9473 14.2959H16.5892C16.5892 20.5679 16.5892 28.9726 16.5892 28.9726H10.8045C10.8045 28.9726 10.8045 20.6791 10.8045 14.2959H7.79022V10.2289H10.8045C10.8045 8.61606 10.8045 7.46921 10.8045 7.14989C10.8045 5.62848 10.6816 4.90661 11.3743 3.72766C12.0673 2.54876 14.022 0.990493 17.4028 1.02801C20.7844 1.06689 22.2098 1.37052 22.2098 1.37052L21.4773 5.70488C21.4773 5.70488 19.318 5.17272 18.2581 5.36238C17.1996 5.55209 16.5892 6.16065 16.5892 7.6814Z" fill="white"/>
</svg>
