<svg width="100" height="100" viewBox="0 0 100 100" fill="none" xmlns="http://www.w3.org/2000/svg">
<g clip-path="url(#clip0_12_2)">
<path d="M55.5838 5.58877C54.0628 6.78314 52.6891 7.80689 52.5173 7.90439C52.3456 8.00189 51.8305 7.92877 51.3398 7.73377C50.5548 7.39252 50.4322 7.39252 50.3095 7.73377C50.2359 7.92877 50.3586 8.29439 50.6039 8.56252C51.0209 9.02564 51.0209 9.05002 50.4567 9.51314C49.6963 10.1469 49.5245 10.1469 47.8564 9.39127C44.3484 7.83127 41.4538 7.17314 41.0122 7.85564C40.5461 8.61127 42.1161 9.92752 45.943 11.975C48.1263 13.145 48.2734 13.2669 48.2734 14.2419C48.2734 14.8756 48.2244 14.9244 47.562 14.7781C46.4827 14.5588 46.36 15.2656 47.3658 15.875C47.7828 16.1431 48.2244 16.3869 48.347 16.4356C48.4452 16.46 48.7395 18.3613 49.0339 20.6281C49.4755 24.455 49.7453 25.4788 50.1378 25.0888C50.2605 24.9425 51.2172 21.5788 51.8059 19.2144C51.8795 18.8488 52.1003 18.5563 52.272 18.5563C52.4192 18.5563 52.7381 18.4588 52.9344 18.3125C53.2288 18.1419 53.2288 18.02 52.8363 17.63C52.3211 17.045 52.5173 15.3875 53.1061 15.3875C53.2778 15.3875 54.3081 15.7775 55.363 16.265L57.2764 17.1181L57.9633 19.0681C58.5766 20.8475 58.9445 21.4569 59.2144 21.1888C59.2634 21.1156 59.4352 20.165 59.6069 19.0438C59.8767 17.1913 59.9994 16.8744 61.2014 15.2169C62.3544 13.6081 62.6978 12.95 62.4034 12.95C62.3544 12.95 61.4222 13.2913 60.3428 13.7056L58.3803 14.4369L56.3933 13.4375C55.2894 12.9013 54.4063 12.3163 54.4063 12.1456C54.4063 11.6581 54.9705 11.0488 55.5102 10.9513C55.8781 10.9025 56.0008 10.6831 56.0008 10.025C56.0008 9.41564 56.4669 8.41627 57.5463 6.63689C59.9258 2.66377 59.6069 2.49314 55.5838 5.58877Z" fill="white"/>
<path d="M64.4886 17.1425C64.3659 17.4594 63.9244 18.4587 63.5073 19.3606C63.0903 20.2869 62.7469 21.1644 62.7469 21.3106C62.7469 21.4812 63.5073 21.92 64.415 22.31C70.9403 25.1375 77.3184 30.7925 81.1944 37.2031C83.0342 40.2256 84.6778 44.3937 85.61 48.2694C86.3214 51.3406 86.5177 59.0431 85.9289 62.4312C84.1381 73.1075 77.5883 82.76 68.1438 88.5612C58.7973 94.3137 46.5563 95.6787 35.8852 92.1444C31.6903 90.755 24.9688 87.0987 24.9688 86.1969C24.9688 86.0019 24.7725 85.8312 24.5272 85.8312C23.9139 85.8312 21.1664 83.4181 19.0567 81.0537C14.543 75.9837 11.4766 69.8656 9.98016 62.9187C9.51407 60.7737 9.41594 59.5794 9.41594 55.4844C9.39141 52.3644 9.51407 49.9512 9.73485 48.7812C10.25 46.0269 11.403 42.0781 12.3842 39.8112C12.8503 38.69 13.1938 37.715 13.0956 37.6419C12.8748 37.4225 11.1331 41.2494 10.2745 43.7844C8.7536 48.2937 8.43469 50.5606 8.43469 56.3375C8.43469 62.1144 8.77813 64.4056 10.2745 68.8906C15.0336 83.0769 27.3238 93.6069 42.1897 96.1662C48.5678 97.2875 55.7555 96.7512 62.1336 94.7037C65.0038 93.7775 70.6214 90.95 73.1727 89.1219C82.887 82.1994 89.2161 71.4744 90.4917 59.8231C90.8597 56.3862 90.6144 50.39 89.9766 47.2212C88.2594 38.6412 84.2608 31.3531 77.9072 25.235C75.3069 22.7244 73.9086 21.5787 71.4555 19.97C69.6402 18.8 65.4453 16.6062 64.9792 16.6062C64.832 16.6062 64.6113 16.85 64.4886 17.1425Z" fill="white"/>
<path d="M55.5102 31.8894C50.8002 32.2306 36.6702 34.7168 34.1435 35.6431C32.1564 36.3744 30.5864 38.0318 28.8447 41.225C26.9067 44.7106 27.103 44.4912 26.4406 44.15C25.9745 43.9062 25.8274 43.9306 25.4349 44.3206C24.797 44.9544 24.38 47.27 24.748 48.0012C25.1159 48.635 24.748 49.4881 23.4233 51.1212C22.9081 51.755 22.3194 52.9494 21.9024 54.29C21.5099 55.4844 20.9702 56.9469 20.6513 57.5562C20.3569 58.1656 19.9889 59.2869 19.8172 60.0669C19.4738 61.7244 19.3756 66.38 19.6209 69.1344C19.7191 70.2069 19.7927 71.1575 19.8172 71.255C19.8663 72.2787 36.4249 74.2287 47.9055 74.5456C54.0628 74.7162 54.6025 74.6187 55.7555 73.2781C56.3442 72.5712 72.1669 65.3806 73.5161 65.1856C75.0861 64.9906 75.7485 64.6006 76.2391 63.6256C76.607 62.9187 76.8278 62.7481 77.2203 62.8456C77.6374 62.9675 77.711 62.87 77.711 62.2119C77.711 61.6756 77.8827 61.3587 78.3978 61.0419C78.7658 60.7981 79.1338 60.5056 79.2319 60.3594C79.5017 59.9937 79.4527 49.5612 79.1828 45.9537C78.6677 39.6406 77.343 34.0587 75.9938 32.7425C75.6013 32.3525 74.9389 31.9625 74.4974 31.865C73.7124 31.7187 57.7916 31.7431 55.5102 31.8894ZM75.037 32.84C75.7485 33.2056 76.1164 33.62 75.9202 33.8394C75.8466 33.8881 71.7744 34.7168 66.8681 35.6431C61.9619 36.5694 57.6444 37.4468 57.2764 37.6175C56.148 38.0562 55.4366 39.4456 54.4799 43.0775C53.7685 45.8319 53.5722 47.075 53.4495 49.7319L53.3024 52.9981L52.0758 53.4369C51.4135 53.6806 50.4813 53.8756 50.0152 53.8756C49.3038 53.9 49.2056 53.8269 49.3283 53.4125C49.5 52.73 49.2792 52.8031 49.0094 53.5344L48.7641 54.1437H42.2142C35.3455 54.1437 30.5864 53.9 26.0972 53.2906C24.6499 53.0956 23.3497 52.9981 23.227 53.0712C22.7855 53.3394 23.5459 51.8037 24.2328 51.0969C24.6008 50.6825 25.1895 49.805 25.533 49.1468C26.2934 47.7087 26.3916 48.0256 25.7292 49.7075L25.2386 50.9262L25.9255 51.0481C28.305 51.5356 34.0208 51.8037 41.8217 51.8037C49.5981 51.8281 50.7511 51.7794 51.0945 51.4381C51.5606 50.9994 54.161 41.9562 54.161 40.8106C54.161 40.2256 53.9892 39.9087 53.5231 39.5918C52.9099 39.2018 51.9041 39.1775 41.8463 39.2018L30.8317 39.2262L31.4205 38.4462C32.9414 36.4962 34.7567 35.8625 43.4899 34.3025C52.9589 32.6206 57.9388 32.255 68.8797 32.4012C73.001 32.4743 74.5464 32.5718 75.037 32.84ZM76.926 36.4718C77.5147 38.5437 78.4469 43.5162 78.4469 44.5887C78.4469 45.1006 78.3978 45.1737 78.2016 44.8812C78.0053 44.5643 77.5638 44.6618 75.1352 45.4906C73.1481 46.1487 72.2405 46.3681 72.1178 46.1731C72.0197 46.0268 71.9706 46.8068 71.9952 47.8793L72.0442 49.8781L71.7744 48.4156C71.6272 47.6112 71.48 46.9044 71.431 46.88C71.4064 46.8312 69.7628 47.3431 67.8249 48.0256C65.8624 48.7081 64.1452 49.2687 64.0225 49.2687C63.7281 49.2687 63.63 48.7081 63.1149 44.2475C62.8941 42.4925 62.6242 40.7375 62.5016 40.3475C62.2072 39.4944 62.2808 40.3475 62.9922 46.4412C63.5564 51.1456 63.8508 55.2894 63.6545 55.1187C63.581 55.0456 63.3847 53.8025 63.213 52.3644C62.9431 49.8781 62.8941 49.7562 62.4035 49.9025C62.1091 50 60.2938 50.6337 58.3313 51.3162L54.7742 52.5594L54.6516 54.7531L54.5289 56.9469L54.1855 52.6812C53.8666 48.5619 53.8666 48.3181 54.3817 45.8562C55.2158 41.8343 56.0008 39.47 56.8103 38.7143C57.4481 38.105 58.2577 37.91 66.5738 36.2525C71.5536 35.2531 75.7975 34.4487 75.9938 34.4731C76.2391 34.5218 76.558 35.2287 76.926 36.4718ZM35.5663 40.3718C35.7625 40.5668 34.9039 45.4419 34.585 46.0269C34.2661 46.6119 33.6528 46.8312 33.8736 46.2706C34.3888 45.0031 34.4133 45.0519 33.7019 45.2225C31.5922 45.7587 30.3166 46.4169 29.7033 47.3431C28.5994 49.0006 28.2805 47.8062 29.1145 45.1494C29.875 42.6875 31.2733 40.7131 32.4508 40.4206C33.1131 40.2743 35.4191 40.2256 35.5663 40.3718ZM52.7381 40.9325C52.9344 41.1275 52.7136 42.2731 51.8305 45.5394C51.1927 47.9281 50.5549 50.0731 50.4322 50.2925C50.236 50.6825 49.7453 50.7312 45.207 50.7312C42.2878 50.7312 40.1781 50.6337 40.1781 50.5119C40.1781 50.2925 44.5938 42.5412 45.2561 41.5906C45.575 41.1275 45.526 41.0787 44.6674 40.8106C43.8578 40.5425 44.3485 40.5181 48.1017 40.5668C50.9474 40.6156 52.5419 40.7375 52.7381 40.9325ZM26.5388 45.5637C26.367 45.9293 26.1708 46.4412 26.1708 46.7093C26.1463 46.9775 26.0481 46.6362 25.95 45.9781C25.7538 44.54 25.8274 44.3206 26.4406 44.6375C26.8577 44.8568 26.8577 44.9543 26.5388 45.5637ZM78.2261 48.8544C78.0789 49.0494 76.8524 49.61 75.5277 50.1462C73.9577 50.7312 72.9764 51.2675 72.8292 51.5844C72.6085 52.0231 72.5839 51.9744 72.633 51.3406C72.682 50.6581 72.8292 50.5606 75.3069 49.61C76.7542 49.0737 78.0299 48.5619 78.1035 48.4644C78.4224 48.1719 78.5205 48.5131 78.2261 48.8544ZM64.8811 50.9994C64.9056 52.1694 65.0528 52.3644 65.568 51.95C65.8624 51.7062 65.936 51.7062 65.936 52.0231C65.936 52.4375 65.1019 52.8031 64.7094 52.5594C64.4395 52.3887 64.3659 50 64.6603 50C64.7584 50 64.8566 50.4387 64.8811 50.9994ZM62.2808 51.7062C62.845 51.7062 62.8941 52.3156 62.3544 52.535C61.7656 52.7544 61.5203 52.4862 61.5449 51.6331C61.5694 51.1944 61.6185 51.0481 61.692 51.2675C61.7411 51.5112 62.011 51.7062 62.2808 51.7062ZM76.5334 53.3394C77.1958 54.095 77.4411 54.7531 77.5638 56.1181L77.6864 57.4344L77.4656 56.3375C77.1713 55.0456 76.5089 54.0462 75.822 53.9487C74.4728 53.7537 73.2953 55.9475 72.8292 59.6281C72.4613 62.5287 72.4367 62.9431 72.6575 63.5769C72.8047 64.04 72.7066 64.1619 72.0197 64.4544C71.5781 64.6494 68.0947 66.2094 64.2678 67.9156C60.4655 69.6219 57.2519 70.9625 57.1538 70.865C57.0556 70.7675 56.933 69.1344 56.8594 67.2331C56.7613 64.4544 56.6386 63.5769 56.2461 62.7969C55.2403 60.7737 53.1797 61.1637 51.9041 63.6256C51.1191 65.1125 50.9719 64.82 51.7324 63.26C52.3456 61.9437 53.7439 60.725 54.5535 60.725C56.2216 60.725 57.0802 62.285 57.2764 65.7219L57.4236 67.9887L59.0427 67.3062C62.5016 65.8437 71.8725 61.7244 72.0197 61.6025C72.0933 61.505 72.3141 60.2862 72.4858 58.8969C72.8047 56.0937 73.5161 54.1437 74.4728 53.4125C75.2333 52.8031 76.0428 52.7787 76.5334 53.3394ZM76.0674 56.63C76.7542 58.0437 76.7052 61.3587 75.9447 62.87C74.7427 65.2831 73.1972 63.7962 73.2217 60.2375C73.2463 56.3131 74.8899 54.2169 76.0674 56.63ZM23.6195 56.435C27.2011 57.2881 38.4119 57.7756 44.4466 57.3369C46.4827 57.1906 48.1753 57.1419 48.2489 57.1906C48.5924 57.5319 47.6356 57.8487 45.5505 58.0681C42.2633 58.4094 42.1897 58.4337 41.4292 59.6525C41.0367 60.2619 40.6442 60.6519 40.5706 60.53C40.497 60.4081 37.6514 60.2375 34.2416 60.14C30.8317 60.0425 27.4219 59.8962 26.6859 59.7987C25.3367 59.6281 25.3367 59.6281 25.2631 58.7506C25.165 57.6781 24.7234 57.2637 23.3252 56.8494C22.6628 56.6787 22.2703 56.4106 22.2703 56.1669C22.2703 55.8987 22.3684 55.85 22.5892 56.0206C22.7364 56.1669 23.2025 56.3375 23.6195 56.435ZM52.272 56.7519C51.855 57.0444 51.7078 57.3856 51.6833 58.1412C51.6833 58.6775 51.5852 59.5794 51.487 60.1156C51.2908 61.0662 51.2663 61.0419 51.2417 59.6037C51.2172 57.7756 50.8983 57.4344 49.5 57.6537C48.5678 57.8 48.5188 57.7756 48.5188 57.1419C48.5188 56.6787 48.5924 56.5569 48.7886 56.7519C48.9603 56.9225 49.5 56.8981 50.5549 56.7031C52.6645 56.2887 52.9099 56.2887 52.272 56.7519ZM22.8591 57.3612C24.4045 57.8 24.5027 57.9462 24.4291 59.6037L24.3555 61.0906L23.0308 61.0419C21.7552 60.9687 20.5531 60.4812 20.5531 59.9937C20.5531 59.6281 21.5589 57.0687 21.7061 57.0687C21.7797 57.0687 22.2949 57.1906 22.8591 57.3612ZM50.4322 59.7744C50.4813 60.9931 50.4077 61.4562 50.1133 61.7C49.6472 62.0656 47.4149 62.3337 47.2186 62.0412C47.1695 61.9194 47.1941 61.2856 47.2922 60.6275C47.4394 59.5794 47.4394 59.4819 47.145 59.8719C46.9488 60.1156 46.8016 60.7494 46.8016 61.2612V62.1875H44.1277C42.2142 62.1875 41.4047 62.09 41.3311 61.8706C41.2084 61.5294 42.1897 59.4819 42.6803 59.0919C42.9747 58.8481 49.0585 58.0681 49.9906 58.1412C50.2605 58.1656 50.3831 58.5556 50.4322 59.7744ZM71.3328 58.6531C72.1914 59.0919 72.2895 59.5062 71.5781 59.5062C71.2838 59.5062 69.6647 60.0669 67.972 60.725C66.2549 61.4075 64.7339 61.9194 64.6113 61.8706C64.4641 61.8219 64.2433 61.9194 64.0961 62.0656C63.9735 62.2362 63.1885 62.6262 62.3789 62.9187C61.5694 63.2112 60.4164 63.6987 59.8277 64.04C59.2389 64.3569 58.6992 64.6006 58.6747 64.5519C58.6256 64.5031 58.92 64.0156 59.337 63.455C59.9994 62.5287 61.643 61.5294 63.5564 60.8956C63.8017 60.7981 63.998 60.4569 63.998 60.0669C64.047 59.4819 64.047 59.4575 64.1452 59.9206C64.1942 60.2375 64.3905 60.4812 64.5377 60.4569C64.7094 60.4569 66.0586 59.9694 67.5305 59.3844C69.0269 58.7994 70.327 58.3119 70.4252 58.3119C70.5233 58.2875 70.9403 58.4581 71.3328 58.6531ZM25.95 61.0906C25.95 61.4319 26.1217 61.7244 26.3916 61.7975C27.2992 62.0656 33.0886 62.5044 36.1795 62.5287C37.9703 62.5287 39.4422 62.6262 39.4422 62.6994C39.4422 63.5281 37.2344 63.5525 29.3844 62.8944C27.6917 62.7481 26.1217 62.5287 25.9009 62.4069C25.582 62.2362 25.4594 61.8706 25.4594 61.1881C25.4594 60.6031 25.5575 60.2619 25.7047 60.3594C25.8519 60.4325 25.95 60.7737 25.95 61.0906ZM54.8233 63.2844C55.731 63.9181 56.2461 65.7219 56.2216 68.0375C56.1725 71.2306 55.1422 73.4 53.6703 73.4C52.3211 73.4 51.487 71.6206 51.4625 68.6956C51.4625 66.185 51.8305 64.7712 52.8117 63.7475C53.6949 62.8212 54.0383 62.7481 54.8233 63.2844ZM31.8375 64.8687C35.4191 65.1369 39.5894 65.405 41.0858 65.5025C42.7784 65.6 43.9559 65.7706 44.1031 65.9656C44.2258 66.1362 44.3975 66.7944 44.4711 67.4525L44.6183 68.6469L44.1277 67.7694C43.8578 67.3062 43.4899 66.7944 43.3181 66.6237C43.1219 66.4775 40.5706 66.2094 37.357 65.99C34.2416 65.795 29.8014 65.4781 27.4955 65.3075L23.2516 65.015L22.4911 65.5756L21.7552 66.1362L22.1722 65.3075C22.7119 64.235 22.9081 64.1619 24.2083 64.2837C24.8461 64.3325 28.256 64.6006 31.8375 64.8687ZM28.7711 68.1594C30.66 68.3544 34.3642 68.6225 36.9891 68.7687C39.6139 68.915 42.3369 69.2075 43.0238 69.4025C43.7106 69.5975 44.9863 69.7437 45.8449 69.7681C46.7035 69.7681 47.6356 69.8656 47.9055 69.9875C48.6169 70.28 41.3311 70.28 36.6211 69.9875C32.1564 69.695 24.748 68.915 22.025 68.4762L20.1852 68.1594L21.4117 68.0131C23.595 67.745 25.2631 67.7937 28.7711 68.1594ZM50.0888 71.7425C49.8925 72.7419 49.3774 73.1562 48.4206 73.1319L47.6602 73.1075L48.4452 72.7662C48.8867 72.5956 49.4019 72.1081 49.6227 71.6937C50.1133 70.7431 50.2605 70.7675 50.0888 71.7425Z" fill="white"/>
<path d="M68.6589 36.7156C65.7642 37.3006 63.3111 37.8856 63.1639 38.0318C62.9922 38.2025 63.0412 39.4212 63.3356 41.7612C63.8998 46.4412 63.9734 46.8556 64.3659 47.0018C64.5622 47.075 67.3833 46.295 70.6214 45.2468C73.8841 44.2231 76.7051 43.4431 76.8769 43.5162C77.343 43.6868 77.3184 42.8337 76.7542 39.6893C76.1409 36.2768 75.8711 35.7406 74.7672 35.6918C74.3011 35.6675 71.5536 36.1306 68.6589 36.7156ZM75.4541 36.4231C75.6012 36.5937 75.9692 38.0318 76.2636 39.5918C76.7297 42.0537 76.7542 42.5168 76.4598 42.785C76.0428 43.1993 72.1669 44.4668 71.7744 44.345C71.6272 44.2962 71.3573 43.8087 71.2101 43.2725C70.9158 42.3462 70.9158 42.3462 70.6705 42.9312C70.4497 43.4675 70.4006 43.4187 70.2534 42.3218C70.1553 41.6393 69.91 40.25 69.7137 39.2018C69.493 38.1537 69.3948 37.2275 69.4684 37.1543C69.6647 36.9593 73.5406 36.155 74.4237 36.1306C74.8408 36.1062 75.3069 36.2525 75.4541 36.4231ZM68.9778 37.52C69.125 37.7637 69.7873 41.6881 70.0081 43.565L70.1553 45.0275L67.8248 45.71C65.4698 46.4168 64.7094 46.4656 64.5131 45.905C64.4641 45.7343 64.5622 45.6612 64.783 45.7343C65.0528 45.8562 69.2967 44.7837 69.542 44.54C69.5911 44.4912 69.493 43.6381 69.3458 42.6143L69.0759 40.7862L68.2909 41.225C67.8739 41.4687 67.0644 41.7856 66.5001 41.9318C65.9359 42.1025 65.1509 42.4925 64.7339 42.8337L63.998 43.4431L63.8262 42.2731C63.7281 41.6393 63.63 40.445 63.63 39.6406L63.6055 38.1781L65.6906 37.7881C68.1192 37.3006 68.8061 37.2518 68.9778 37.52Z" fill="white"/>
<path d="M72.2405 36.9593C71.4555 37.13 70.6705 37.3981 70.5233 37.5687C70.3025 37.8125 70.3271 37.8368 70.7196 37.715C70.9894 37.6418 71.9461 37.4225 72.8538 37.2518C74.571 36.8862 75.0125 37.0081 75.0125 37.8368C75.0125 38.4462 73.3444 39.665 72.265 39.86C71.7499 39.9575 71.3328 40.1525 71.3328 40.2987C71.3328 41.2006 71.9216 43.6625 72.1178 43.6625C72.7557 43.6625 75.7239 42.6387 75.9692 42.3462C76.19 42.1025 76.141 41.42 75.773 39.5431C75.5032 38.1781 75.2088 36.9593 75.1352 36.8375C74.9389 36.5206 74.0313 36.5693 72.2405 36.9593Z" fill="white"/>
<path d="M56.7612 40.055C56.5405 40.4937 55.9026 42.5412 55.363 44.6131C54.6025 47.4406 54.4062 48.635 54.5044 49.3419C54.6025 49.8781 54.7251 50.4144 54.7987 50.5119C54.8478 50.6094 55.4856 50.4387 56.197 50.1219C56.8839 49.7806 57.718 49.5125 58.0123 49.5125C58.3067 49.5125 58.7483 49.3175 58.9936 49.0737C59.2389 48.83 59.9012 48.44 60.49 48.1719C61.1769 47.8794 61.5694 47.5381 61.6675 47.1481C61.7656 46.8312 61.692 45.1494 61.5203 43.4187C61.3731 41.6881 61.2995 40.1525 61.3976 40.0062C61.6184 39.6406 60.7844 39.7137 59.4106 40.1525C57.8406 40.6887 57.5708 40.9325 56.7367 42.6875C56.3442 43.4919 56.0008 44.1012 55.9272 44.0525C55.78 43.8819 57.1047 40.0306 57.3745 39.8844C57.6444 39.6894 57.6689 39.275 57.3991 39.275C57.2764 39.275 57.0066 39.6406 56.7612 40.055ZM58.8219 47.3187V48.7812L58.0369 48.7569C57.4481 48.7325 57.3745 48.6837 57.7916 48.6106C58.2576 48.5131 58.3312 48.3425 58.3312 47.4406V46.3681L57.4236 46.5144C56.0253 46.7337 55.8291 46.9775 55.9272 48.4644C55.9762 49.5369 55.9272 49.7562 55.5837 49.7562C55.2403 49.7562 55.1912 49.5369 55.2894 48.1231C55.412 46.2219 55.78 45.6612 57.0801 45.5637C58.5766 45.4175 58.8219 45.6856 58.8219 47.3187Z" fill="white"/>
<path d="M64.464 65.7218C58.2086 68.4031 56.7122 69.1831 57.1292 69.5975C57.2028 69.6706 58.8955 69.0125 60.907 68.1593C62.9186 67.2818 64.6603 66.5993 64.8075 66.6481C64.9547 66.6968 65.2 66.5993 65.3226 66.4287C65.5925 66.1118 71.2347 63.65 71.7253 63.65C71.897 63.65 71.9706 63.455 71.897 63.1625C71.8234 62.8943 71.7008 62.675 71.6026 62.6993C71.529 62.7237 68.3155 64.0643 64.464 65.7218Z" fill="white"/>
<path d="M74.3256 56.63C73.9331 57.02 73.9577 57.3369 74.3747 57.1663C74.5709 57.0931 74.8898 57.2881 75.1106 57.605C75.6503 58.3363 75.6013 58.5069 74.9634 58.3606L74.3992 58.2388L74.9634 58.6288C75.9447 59.3844 75.5031 62.1875 74.4973 61.5538C74.3011 61.4563 74.2766 61.4806 74.3747 61.6513C74.4728 61.7975 74.3992 62.1388 74.2275 62.4069C74.0067 62.7969 73.9822 62.9675 74.203 63.1869C74.6445 63.6256 75.2333 63.26 75.6503 62.2606C76.2145 60.9688 76.0428 57.5563 75.405 56.8494C74.8653 56.2644 74.7181 56.24 74.3256 56.63ZM75.2578 62.4313C75.1106 62.6994 74.8898 62.9188 74.7672 62.9188C74.62 62.9188 74.6445 62.6994 74.8163 62.4313C74.988 62.1631 75.2088 61.9438 75.3314 61.9438C75.4295 61.9438 75.405 62.1631 75.2578 62.4313Z" fill="white"/>
<path d="M74.3256 60.0912C74.3992 61.1637 74.8653 61.5294 75.0861 60.6762C75.2087 60.2862 75.0861 59.9694 74.7426 59.6281L74.252 59.1406L74.3256 60.0912Z" fill="white"/>
<path d="M52.8117 64.4787C52.4192 65.0637 51.9531 66.4531 51.9531 66.9893C51.9531 67.16 52.1249 67.2331 52.3211 67.16C52.6155 67.0381 52.64 66.9162 52.4192 66.6725C52.1494 66.3556 52.2966 66.2337 52.7627 66.3068C52.8853 66.3312 52.9099 66.1362 52.8363 65.8925C52.7381 65.6243 52.8363 65.3075 53.057 65.1125C53.376 64.8443 53.5231 64.8931 53.9156 65.3562C54.4799 66.0143 54.5535 66.38 54.0628 66.185C53.5722 65.99 53.1797 66.8431 53.1797 68.0862C53.1797 69.4268 53.4495 69.8412 54.161 69.6218C54.6516 69.4756 54.6761 69.5 54.4308 69.9631C54.2591 70.2556 54.0383 70.475 53.9156 70.475C53.6213 70.475 52.9344 69.7681 52.9344 69.4512C52.9344 69.3293 52.7872 69.2562 52.591 69.3293C52.1985 69.4756 51.855 68.5981 52.223 68.3787C52.3456 68.3056 52.3702 68.135 52.2966 67.9887C51.6588 66.965 51.806 70.4993 52.4438 71.6693C52.8853 72.4981 53.5477 72.7175 54.0874 72.23C54.3327 72.0106 54.4308 71.8887 54.3081 71.9862C53.7439 72.425 53.7439 72.1081 54.2836 71.1331C55.3139 69.2318 55.2649 66.5506 54.161 65.0637C53.5477 64.2106 53.6458 63.9668 54.4553 64.4056C54.9705 64.6737 54.995 64.6737 54.6761 64.3081C54.1855 63.6987 53.2533 63.7962 52.8117 64.4787ZM54.4308 67.355C54.627 68.0862 54.4308 69.305 54.161 69.1343C54.0628 69.0856 54.0383 68.7687 54.0874 68.4518C54.161 68.135 54.0383 67.745 53.8175 67.5743C53.425 67.2575 53.5477 66.5018 53.9892 66.6481C54.1364 66.6968 54.3327 67.0137 54.4308 67.355Z" fill="white"/>
<path d="M28.1578 78.5187C28.1578 78.8843 28.3296 79.0062 28.7711 79.0062H29.3844V82.2968C29.3844 85.4168 29.4089 85.5875 29.875 85.5875C30.3411 85.5875 30.3656 85.4168 30.3656 82.2968V79.0062H30.9789C31.4205 79.0062 31.5922 78.8843 31.5922 78.5187C31.5922 78.08 31.4205 78.0312 29.875 78.0312C28.3296 78.0312 28.1578 78.08 28.1578 78.5187Z" fill="white"/>
<path d="M32.5734 81.8093C32.5734 85.4168 32.598 85.5875 33.0641 85.5875C33.5301 85.5875 33.5547 85.4168 33.5547 82.2968V79.0062H34.2906C35.002 79.0062 35.0266 79.0306 35.0266 80.225C35.0266 81.2731 34.953 81.4437 34.5359 81.4437C33.8736 81.4437 33.8981 81.98 34.6341 83.9056C35.0756 85.0756 35.3455 85.49 35.738 85.5387C36.3512 85.6362 36.3512 85.7337 35.7625 84.0031C35.1737 82.3212 35.1737 82.175 35.6153 82.175C35.8116 82.175 36.0323 82.0043 36.1059 81.785C36.3758 81.1025 36.2531 78.6162 35.9587 78.3237C35.787 78.1531 35.002 78.0312 34.1189 78.0312H32.5734V81.8093Z" fill="white"/>
<path d="M38.8289 78.3237C38.7308 78.6893 37.4797 85.1731 37.4797 85.4168C37.4797 85.5143 37.7005 85.5875 37.9703 85.5875C38.3383 85.5875 38.51 85.3681 38.6326 84.8562C38.7308 84.2468 38.878 84.125 39.4422 84.125C40.0064 84.125 40.1536 84.2468 40.2762 84.8562C40.3744 85.3925 40.5461 85.5875 40.9386 85.5875C41.3801 85.5875 41.4292 85.49 41.3311 84.905C41.2575 84.5393 40.9386 82.8575 40.6197 81.1268C40.1045 78.2262 40.0309 78.0312 39.4912 78.0312C39.1969 78.0312 38.9025 78.1775 38.8289 78.3237ZM39.8101 81.8581C39.9819 83.0768 39.9573 83.15 39.4422 83.15C38.927 83.15 38.9025 83.0525 39.0497 82.2237C39.1233 81.7362 39.1969 81.0537 39.1969 80.7125C39.1969 79.7131 39.6139 80.4931 39.8101 81.8581Z" fill="white"/>
<path d="M42.6312 81.8093C42.6312 85.3925 42.6558 85.5875 43.1219 85.5875C43.5634 85.5875 43.6125 85.3925 43.6615 83.3206L43.7351 81.0781L44.5692 83.3206C45.207 85.0756 45.5014 85.5875 45.8448 85.5875C46.2864 85.5875 46.3109 85.3437 46.3109 81.8093C46.3109 78.2262 46.2864 78.0312 45.8203 78.0312C45.4033 78.0312 45.3542 78.2262 45.2806 80.1518L45.207 82.2968L44.3729 80.1518C43.7351 78.5431 43.4408 78.0312 43.0973 78.0312C42.6558 78.0312 42.6312 78.2993 42.6312 81.8093Z" fill="white"/>
<path d="M47.9546 78.1775C47.8564 78.275 47.7828 78.9088 47.7828 79.6156C47.7828 80.7856 47.8564 80.9319 49.0094 82.0531C49.8925 82.9306 50.236 83.4425 50.236 83.93C50.236 84.515 50.1378 84.6125 49.5 84.6125C48.8377 84.6125 48.7641 84.5394 48.7641 83.8813C48.7641 83.2963 48.666 83.15 48.2489 83.15C47.8074 83.15 47.7583 83.2719 47.8319 84.2956L47.9055 85.4656H49.5H51.0946L51.1681 84.125C51.2417 82.8088 51.2172 82.76 49.9906 81.5656C49.1075 80.6881 48.7641 80.1763 48.7641 79.6888C48.7641 79.1038 48.8622 79.0063 49.5 79.0063C50.1624 79.0063 50.236 79.0794 50.236 79.7375C50.236 80.3225 50.3341 80.4688 50.7511 80.4688C51.1927 80.4688 51.2417 80.3469 51.1681 79.2988L51.0946 78.1531L49.6227 78.08C48.7886 78.0313 48.0527 78.08 47.9546 78.1775Z" fill="white"/>
<path d="M52.6891 81.8093C52.6891 85.4168 52.7136 85.5875 53.1797 85.5875C53.6213 85.5875 53.6703 85.4168 53.6703 84.2468V82.9062H54.7252C55.3139 82.9062 55.9027 82.7843 56.0744 82.6137C56.2461 82.4431 56.3688 81.59 56.3688 80.4687C56.3688 79.3475 56.2461 78.4943 56.0744 78.3237C55.9027 78.1531 55.1177 78.0312 54.2346 78.0312H52.6891V81.8093ZM55.1422 80.4687V81.9312H54.4063H53.6703V80.4687V79.0062H54.4063H55.1422V80.4687Z" fill="white"/>
<path d="M57.718 78.3481C57.6444 78.5188 57.6199 80.2006 57.6444 82.0531L57.718 85.4656H59.4352H61.1524V81.8094V78.1531L59.4842 78.08C58.2822 78.0313 57.7916 78.1044 57.718 78.3481ZM60.2938 81.8094V84.6125H59.4352H58.5766V81.8094V79.0063H59.4352H60.2938V81.8094Z" fill="white"/>
<path d="M62.7469 81.8093C62.7469 85.4168 62.7714 85.5875 63.2375 85.5875C63.7036 85.5875 63.7281 85.4168 63.7281 82.2968V79.0062H64.4641C65.1755 79.0062 65.2 79.0306 65.2 80.225C65.2 81.2731 65.1264 81.4437 64.7094 81.4437C64.047 81.4437 64.0716 81.98 64.8075 83.9056C65.2491 85.0756 65.5189 85.49 65.9114 85.5387C66.5247 85.6362 66.5247 85.7337 65.9359 84.0031C65.3472 82.3212 65.3472 82.175 65.7888 82.175C65.985 82.175 66.2058 82.0043 66.2794 81.785C66.5492 81.1025 66.4266 78.6162 66.1322 78.3237C65.9605 78.1531 65.1755 78.0312 64.2924 78.0312H62.7469V81.8093Z" fill="white"/>
<path d="M67.6531 78.5187C67.6531 78.8843 67.8249 79.0062 68.2664 79.0062H68.8797V82.2968C68.8797 85.4168 68.9042 85.5875 69.3703 85.5875C69.8364 85.5875 69.861 85.4168 69.861 82.2968V79.0062H70.4742C70.9158 79.0062 71.0875 78.8843 71.0875 78.5187C71.0875 78.08 70.9158 78.0312 69.3703 78.0312C67.8249 78.0312 67.6531 78.08 67.6531 78.5187Z" fill="white"/>
</g>
<defs>
<clipPath id="clip0_12_2">
<rect width="100" height="100" fill="white"/>
</clipPath>
</defs>
</svg>
