<svg width="60" height="60" viewBox="0 0 60 60" fill="none" xmlns="http://www.w3.org/2000/svg">
<g clip-path="url(#clip0_12_2)">
<path d="M33.0262 3.8088C32.1447 4.51318 31.3484 5.11693 31.2489 5.17443C31.1494 5.23193 30.8508 5.1888 30.5664 5.0738C30.1114 4.87255 30.0403 4.87255 29.9692 5.0738C29.9266 5.1888 29.9977 5.40443 30.1398 5.56255C30.3816 5.83568 30.3816 5.85005 30.0545 6.12318C29.6137 6.49693 29.5142 6.49693 28.5473 6.0513C26.5141 5.1313 24.8362 4.74318 24.5803 5.14568C24.3102 5.5913 25.2202 6.36755 27.4383 7.57505C28.7037 8.26505 28.7891 8.33693 28.7891 8.91193C28.7891 9.28568 28.7606 9.31443 28.3767 9.22818C27.7511 9.0988 27.68 9.51568 28.263 9.87505C28.5047 10.0332 28.7606 10.1769 28.8317 10.2057C28.8886 10.2201 29.0592 11.3413 29.2298 12.6782C29.4858 14.9351 29.6422 15.5388 29.8697 15.3088C29.9408 15.2226 30.4953 13.2388 30.8366 11.8444C30.8792 11.6288 31.0072 11.4563 31.1067 11.4563C31.192 11.4563 31.3769 11.3988 31.4906 11.3126C31.6612 11.2119 31.6612 11.1401 31.4337 10.9101C31.1352 10.5651 31.2489 9.58755 31.5902 9.58755C31.6897 9.58755 32.2869 9.81755 32.8983 10.1051L34.0073 10.6082L34.4055 11.7582C34.7609 12.8076 34.9742 13.1669 35.1306 13.0088C35.1591 12.9657 35.2586 12.4051 35.3581 11.7438C35.5145 10.6513 35.5856 10.4644 36.2823 9.48693C36.9506 8.53818 37.1497 8.15005 36.9791 8.15005C36.9506 8.15005 36.4103 8.3513 35.7847 8.59568L34.6472 9.02693L33.4955 8.43755C32.8556 8.1213 32.3437 7.7763 32.3437 7.67568C32.3437 7.38818 32.6708 7.0288 32.9836 6.9713C33.1969 6.94255 33.268 6.81318 33.268 6.42505C33.268 6.06568 33.5381 5.4763 34.1637 4.42693C35.543 2.0838 35.3581 1.98318 33.0262 3.8088Z" fill="white"/>
<path d="M38.1877 10.6225C38.1166 10.8094 37.8606 11.3988 37.6189 11.9307C37.3772 12.4769 37.1781 12.9944 37.1781 13.0807C37.1781 13.1813 37.6189 13.44 38.145 13.67C41.9272 15.3375 45.6241 18.6725 47.8706 22.4532C48.937 24.2357 49.8897 26.6938 50.43 28.9794C50.8423 30.7907 50.9561 35.3332 50.6148 37.3313C49.5769 43.6275 45.7805 49.32 40.3063 52.7413C34.8889 56.1338 27.7938 56.9388 21.6086 54.8544C19.1772 54.035 15.2813 51.8788 15.2813 51.3469C15.2813 51.2319 15.1675 51.1313 15.0253 51.1313C14.6698 51.1313 13.0773 49.7082 11.8545 48.3138C9.23828 45.3238 7.46094 41.7157 6.5936 37.6188C6.32344 36.3538 6.26656 35.6494 6.26656 33.2344C6.25235 31.3944 6.32344 29.9713 6.45141 29.2813C6.75 27.6569 7.41828 25.3282 7.98703 23.9913C8.25719 23.33 8.45625 22.755 8.39938 22.7119C8.27141 22.5825 7.26188 24.8394 6.76422 26.3344C5.88266 28.9938 5.69781 30.3307 5.69781 33.7375C5.69781 37.1444 5.89688 38.4957 6.76422 41.1407C9.52266 49.5069 16.6463 55.7169 25.2628 57.2263C28.9597 57.8875 33.1258 57.5713 36.8227 56.3638C38.4863 55.8175 41.7423 54.15 43.2211 53.0719C48.8517 48.9894 52.5202 42.6644 53.2595 35.7932C53.4728 33.7663 53.3306 30.23 52.9609 28.3613C51.9656 23.3013 49.648 19.0032 45.9653 15.395C44.4581 13.9144 43.6477 13.2388 42.2258 12.29C41.1736 11.6 38.7422 10.3063 38.472 10.3063C38.3867 10.3063 38.2588 10.45 38.1877 10.6225Z" fill="white"/>
<path d="M32.9836 19.3194C30.2536 19.5206 22.0636 20.9869 20.5991 21.5331C19.4474 21.9644 18.5374 22.9419 17.5278 24.825C16.4046 26.8806 16.5183 26.7513 16.1344 26.55C15.8642 26.4063 15.7789 26.4206 15.5514 26.6506C15.1817 27.0244 14.94 28.39 15.1533 28.8213C15.3666 29.195 15.1533 29.6981 14.3855 30.6613C14.0869 31.035 13.7456 31.7394 13.5039 32.53C13.2764 33.2344 12.9636 34.0969 12.7788 34.4563C12.6081 34.8156 12.3949 35.4769 12.2953 35.9369C12.0963 36.9144 12.0394 39.66 12.1816 41.2844C12.2385 41.9169 12.2811 42.4775 12.2953 42.535C12.3238 43.1388 21.9214 44.2888 28.5758 44.4756C32.1447 44.5763 32.4575 44.5188 33.1258 43.7281C33.4671 43.3113 42.6381 39.0706 43.4202 38.9556C44.3302 38.8406 44.7141 38.6106 44.9985 38.0356C45.2117 37.6188 45.3397 37.5181 45.5672 37.5756C45.8089 37.6475 45.8516 37.59 45.8516 37.2019C45.8516 36.8856 45.9511 36.6988 46.2497 36.5119C46.463 36.3681 46.6763 36.1956 46.7331 36.1094C46.8896 35.8938 46.8611 29.7413 46.7047 27.6138C46.4061 23.8906 45.6383 20.5988 44.8563 19.8225C44.6288 19.5925 44.2449 19.3625 43.9889 19.305C43.5339 19.2188 34.306 19.2331 32.9836 19.3194ZM44.3017 19.88C44.7141 20.0956 44.9274 20.34 44.8136 20.4694C44.771 20.4981 42.4106 20.9869 39.5669 21.5331C36.7231 22.0794 34.2206 22.5969 34.0074 22.6975C33.3533 22.9563 32.941 23.7756 32.3864 25.9175C31.9741 27.5419 31.8603 28.275 31.7892 29.8419L31.7039 31.7681L30.993 32.0269C30.6091 32.1706 30.0688 32.2856 29.7986 32.2856C29.3863 32.3 29.3294 32.2569 29.4005 32.0125C29.5 31.61 29.3721 31.6531 29.2156 32.0844L29.0735 32.4438H25.2771C21.2958 32.4438 18.5374 32.3 15.9353 31.9406C15.0964 31.8256 14.3428 31.7681 14.2717 31.8113C14.0158 31.9694 14.4566 31.0638 14.8547 30.6469C15.068 30.4025 15.4092 29.885 15.6083 29.4969C16.0491 28.6488 16.106 28.8356 15.7221 29.8275L15.4377 30.5463L15.8358 30.6181C17.215 30.9056 20.528 31.0638 25.0496 31.0638C29.5569 31.0781 30.2252 31.0494 30.4242 30.8481C30.6944 30.5894 32.2016 25.2563 32.2016 24.5806C32.2016 24.2356 32.1021 24.0488 31.8319 23.8619C31.4764 23.6319 30.8935 23.6175 25.0638 23.6319L18.6796 23.6463L19.0208 23.1863C19.9024 22.0363 20.9546 21.6625 26.0164 20.7425C31.5049 19.7506 34.3913 19.535 40.7328 19.6213C43.1216 19.6644 44.0174 19.7219 44.3017 19.88ZM45.3966 22.0219C45.7378 23.2438 46.2781 26.1763 46.2781 26.8088C46.2781 27.1106 46.2497 27.1538 46.136 26.9813C46.0222 26.7944 45.7663 26.8519 44.3586 27.3406C43.2069 27.7288 42.6808 27.8581 42.6097 27.7431C42.5528 27.6569 42.5244 28.1169 42.5386 28.7494L42.5671 29.9281L42.4106 29.0656C42.3253 28.5913 42.24 28.1744 42.2116 28.16C42.1974 28.1313 41.2447 28.4331 40.1214 28.8356C38.9839 29.2381 37.9886 29.5688 37.9175 29.5688C37.7469 29.5688 37.69 29.2381 37.3914 26.6075C37.2635 25.5725 37.1071 24.5375 37.036 24.3075C36.8653 23.8044 36.908 24.3075 37.3203 27.9013C37.6474 30.6756 37.818 33.1194 37.7042 33.0188C37.6616 32.9756 37.5478 32.2425 37.4483 31.3944C37.2919 29.9281 37.2635 29.8563 36.9791 29.9425C36.8085 30 35.7563 30.3738 34.6188 30.7763L32.5571 31.5094L32.486 32.8031L32.4149 34.0969L32.2158 31.5813C32.031 29.1519 32.031 29.0081 32.3296 27.5563C32.813 25.1844 33.268 23.79 33.7372 23.3444C34.1069 22.985 34.5761 22.87 39.3963 21.8925C42.2827 21.3031 44.7425 20.8288 44.8563 20.8431C44.9985 20.8719 45.1833 21.2888 45.3966 22.0219ZM21.4238 24.3219C21.5375 24.4369 21.0399 27.3119 20.855 27.6569C20.6702 28.0019 20.3147 28.1313 20.4427 27.8006C20.7413 27.0531 20.7555 27.0819 20.3431 27.1825C19.1203 27.4988 18.381 27.8869 18.0255 28.4331C17.3856 29.4106 17.2008 28.7063 17.6842 27.1394C18.125 25.6875 18.9355 24.5231 19.618 24.3506C20.0019 24.2644 21.3385 24.2356 21.4238 24.3219ZM31.3769 24.6525C31.4906 24.7675 31.3627 25.4431 30.8508 27.3694C30.4811 28.7781 30.1114 30.0431 30.0403 30.1725C29.9266 30.4025 29.6422 30.4313 27.0117 30.4313C25.3197 30.4313 24.0969 30.3738 24.0969 30.3019C24.0969 30.1725 26.6563 25.6013 27.0402 25.0406C27.225 24.7675 27.1966 24.7388 26.6989 24.5806C26.2297 24.4225 26.5141 24.4081 28.6896 24.4369C30.3389 24.4656 31.2631 24.5375 31.3769 24.6525ZM16.1913 27.3838C16.0917 27.5994 15.978 27.9013 15.978 28.0594C15.9638 28.2175 15.9069 28.0163 15.85 27.6281C15.7363 26.78 15.7789 26.6506 16.1344 26.8375C16.3761 26.9669 16.3761 27.0244 16.1913 27.3838ZM46.1502 29.3244C46.0649 29.4394 45.3539 29.77 44.5861 30.0863C43.6761 30.4313 43.1074 30.7475 43.0221 30.9344C42.8941 31.1931 42.8799 31.1644 42.9083 30.7906C42.9367 30.3881 43.0221 30.3306 44.4581 29.77C45.2971 29.4538 46.0364 29.1519 46.0791 29.0944C46.2639 28.9219 46.3208 29.1231 46.1502 29.3244ZM38.4152 30.5894C38.4294 31.2794 38.5147 31.3944 38.8133 31.15C38.9839 31.0063 39.0266 31.0063 39.0266 31.1931C39.0266 31.4375 38.5431 31.6531 38.3156 31.5094C38.1592 31.4088 38.1166 30 38.2872 30C38.3441 30 38.401 30.2588 38.4152 30.5894ZM36.908 31.0063C37.235 31.0063 37.2635 31.3656 36.9506 31.495C36.6094 31.6244 36.4672 31.4663 36.4814 30.9631C36.4956 30.7044 36.5241 30.6181 36.5667 30.7475C36.5952 30.8913 36.7516 31.0063 36.908 31.0063ZM45.1691 31.9694C45.553 32.415 45.6952 32.8031 45.7663 33.6081L45.8374 34.3844L45.7094 33.7375C45.5388 32.9756 45.1549 32.3863 44.7567 32.3288C43.9747 32.2138 43.2922 33.5075 43.0221 35.6781C42.8088 37.3888 42.7946 37.6331 42.9225 38.0069C43.0078 38.28 42.951 38.3519 42.5528 38.5244C42.2969 38.6394 40.2778 39.5594 38.0597 40.5656C35.8558 41.5719 33.9931 42.3625 33.9363 42.305C33.8794 42.2475 33.8083 41.2844 33.7656 40.1631C33.7088 38.5244 33.6377 38.0069 33.4102 37.5469C32.8272 36.3538 31.6328 36.5838 30.8935 38.0356C30.4385 38.9125 30.3531 38.74 30.7939 37.82C31.1494 37.0438 31.9599 36.325 32.4291 36.325C33.396 36.325 33.8936 37.245 34.0074 39.2719L34.0927 40.6088L35.0311 40.2063C37.036 39.3438 42.4675 36.9144 42.5528 36.8425C42.5955 36.785 42.7235 36.0663 42.823 35.2469C43.0078 33.5938 43.4202 32.4438 43.9747 32.0125C44.4155 31.6531 44.8847 31.6388 45.1691 31.9694ZM44.8989 33.91C45.2971 34.7438 45.2686 36.6988 44.8278 37.59C44.1311 39.0131 43.2353 38.1363 43.2496 36.0375C43.2638 33.7231 44.2164 32.4869 44.8989 33.91ZM14.4992 33.795C16.5752 34.2981 23.0731 34.5856 26.571 34.3269C27.7511 34.2406 28.7322 34.2119 28.7749 34.2406C28.9739 34.4419 28.4194 34.6288 27.2108 34.7581C25.3055 34.9594 25.2628 34.9738 24.8221 35.6925C24.5946 36.0519 24.3671 36.2819 24.3244 36.21C24.2817 36.1381 22.6324 36.0375 20.656 35.98C18.6796 35.9225 16.7031 35.8363 16.2766 35.7788C15.4946 35.6781 15.4946 35.6781 15.4519 35.1606C15.395 34.5281 15.1391 34.2838 14.3286 34.0394C13.9447 33.9388 13.7172 33.7806 13.7172 33.6369C13.7172 33.4788 13.7741 33.45 13.9021 33.5506C13.9874 33.6369 14.2575 33.7375 14.4992 33.795ZM31.1067 33.9819C30.865 34.1544 30.7797 34.3556 30.7655 34.8013C30.7655 35.1175 30.7086 35.6494 30.6517 35.9656C30.538 36.5263 30.5238 36.5119 30.5096 35.6638C30.4953 34.5856 30.3105 34.3844 29.5 34.5138C28.9597 34.6 28.9313 34.5856 28.9313 34.2119C28.9313 33.9388 28.9739 33.8669 29.0877 33.9819C29.1872 34.0825 29.5 34.0681 30.1114 33.9531C31.3342 33.7088 31.4764 33.7088 31.1067 33.9819ZM14.0585 34.3413C14.9542 34.6 15.0111 34.6863 14.9685 35.6638L14.9258 36.5406L14.158 36.5119C13.4186 36.4688 12.7219 36.1813 12.7219 35.8938C12.7219 35.6781 13.3049 34.1688 13.3902 34.1688C13.4328 34.1688 13.7314 34.2406 14.0585 34.3413ZM30.0403 35.7644C30.0688 36.4831 30.0261 36.7563 29.8555 36.9C29.5853 37.1156 28.2914 37.2738 28.1777 37.1013C28.1492 37.0294 28.1635 36.6556 28.2203 36.2675C28.3056 35.6494 28.3056 35.5919 28.135 35.8219C28.0213 35.9656 27.936 36.3394 27.936 36.6413V37.1875H26.3861C25.2771 37.1875 24.8078 37.13 24.7652 37.0006C24.6941 36.7994 25.2628 35.5919 25.5472 35.3619C25.7178 35.2181 29.2441 34.7581 29.7844 34.8013C29.9408 34.8156 30.0119 35.0456 30.0403 35.7644ZM42.1547 35.1031C42.6524 35.3619 42.7092 35.6063 42.2969 35.6063C42.1263 35.6063 41.1878 35.9369 40.2067 36.325C39.2114 36.7275 38.3299 37.0294 38.2588 37.0006C38.1735 36.9719 38.0455 37.0294 37.9602 37.1156C37.8891 37.2163 37.4341 37.4463 36.9649 37.6188C36.4956 37.7913 35.8274 38.0788 35.4861 38.28C35.1449 38.4669 34.8321 38.6106 34.8178 38.5819C34.7894 38.5531 34.96 38.2656 35.2017 37.935C35.5856 37.3888 36.5383 36.7994 37.6474 36.4256C37.7896 36.3681 37.9033 36.1669 37.9033 35.9369C37.9317 35.5919 37.9317 35.5775 37.9886 35.8506C38.0171 36.0375 38.1308 36.1813 38.2161 36.1669C38.3156 36.1669 39.0977 35.8794 39.9508 35.5344C40.8181 35.1894 41.5717 34.9019 41.6286 34.9019C41.6855 34.8875 41.9272 34.9881 42.1547 35.1031ZM15.85 36.5406C15.85 36.7419 15.9496 36.9144 16.106 36.9575C16.6321 37.1156 19.9877 37.3744 21.7792 37.3888C22.8172 37.3888 23.6703 37.4463 23.6703 37.4894C23.6703 37.9781 22.3906 37.9925 17.8406 37.6044C16.8596 37.5181 15.9496 37.3888 15.8216 37.3169C15.6367 37.2163 15.5656 37.0006 15.5656 36.5981C15.5656 36.2531 15.6225 36.0519 15.7078 36.1094C15.7931 36.1525 15.85 36.3538 15.85 36.5406ZM32.5855 37.8344C33.1116 38.2081 33.4102 39.2719 33.396 40.6375C33.3675 42.5206 32.7703 43.8 31.9172 43.8C31.1352 43.8 30.6517 42.7506 30.6375 41.0256C30.6375 39.545 30.8508 38.7113 31.4196 38.1075C31.9314 37.5613 32.1305 37.5181 32.5855 37.8344ZM19.2625 38.7688C21.3385 38.9269 23.7556 39.085 24.623 39.1425C25.6041 39.2 26.2866 39.3006 26.3719 39.4156C26.443 39.5163 26.5425 39.9044 26.5852 40.2925L26.6705 40.9969L26.3861 40.4794C26.2297 40.2063 26.0164 39.9044 25.9169 39.8038C25.8031 39.7175 24.3244 39.5594 22.4617 39.43C20.656 39.315 18.0824 39.1281 16.7458 39.0275L14.286 38.855L13.8452 39.1856L13.4186 39.5163L13.6603 39.0275C13.9731 38.395 14.0869 38.3519 14.8405 38.4238C15.2102 38.4525 17.1866 38.6106 19.2625 38.7688ZM17.4852 40.7094C18.58 40.8244 20.7271 40.9825 22.2485 41.0688C23.7699 41.155 25.3481 41.3275 25.7463 41.4425C26.1444 41.5575 26.8838 41.6438 27.3814 41.6581C27.8791 41.6581 28.4194 41.7156 28.5758 41.7875C28.9881 41.96 24.7652 41.96 22.0352 41.7875C19.4474 41.615 15.1533 41.155 13.575 40.8963L12.5086 40.7094L13.2196 40.6231C14.485 40.465 15.4519 40.4938 17.4852 40.7094ZM29.8413 42.8225C29.7275 43.4119 29.4289 43.6563 28.8744 43.6419L28.4336 43.6275L28.8886 43.4263C29.1446 43.3256 29.4431 43.0381 29.5711 42.7938C29.8555 42.2331 29.9408 42.2475 29.8413 42.8225Z" fill="white"/>
<path d="M40.6049 22.1657C38.927 22.5107 37.5052 22.8557 37.4199 22.9419C37.3203 23.0426 37.3488 23.7613 37.5194 25.1413C37.8464 27.9013 37.8891 28.1457 38.1166 28.2319C38.2303 28.2751 39.8655 27.8151 41.7424 27.1969C43.6335 26.5932 45.2686 26.1332 45.3681 26.1763C45.6383 26.2769 45.6241 25.7738 45.297 23.9194C44.9416 21.9069 44.7852 21.5907 44.1453 21.5619C43.8752 21.5476 42.2827 21.8207 40.6049 22.1657ZM44.5435 21.9932C44.6288 22.0938 44.842 22.9419 45.0127 23.8619C45.2828 25.3138 45.297 25.5869 45.1264 25.7451C44.8847 25.9894 42.6381 26.7369 42.4106 26.6651C42.3253 26.6363 42.1689 26.3488 42.0836 26.0326C41.913 25.4863 41.913 25.4863 41.7708 25.8313C41.6428 26.1476 41.6144 26.1188 41.5291 25.4719C41.4722 25.0694 41.33 24.2501 41.2163 23.6319C41.0883 23.0138 41.0314 22.4676 41.0741 22.4244C41.1878 22.3094 43.4344 21.8351 43.9463 21.8207C44.188 21.8063 44.4581 21.8926 44.5435 21.9932ZM40.7897 22.6401C40.875 22.7838 41.2589 25.0982 41.3869 26.2051L41.4722 27.0676L40.1214 27.4701C38.7564 27.8869 38.3156 27.9157 38.2019 27.5851C38.1735 27.4844 38.2303 27.4413 38.3583 27.4844C38.5147 27.5563 40.9745 26.9238 41.1167 26.7801C41.1452 26.7513 41.0883 26.2482 41.003 25.6444L40.8466 24.5663L40.3916 24.8251C40.1499 24.9688 39.6806 25.1557 39.3536 25.2419C39.0266 25.3426 38.5716 25.5726 38.3299 25.7738L37.9033 26.1332L37.8038 25.4432C37.7469 25.0694 37.69 24.3651 37.69 23.8907L37.6758 23.0282L38.8844 22.7982C40.292 22.5107 40.6902 22.4819 40.7897 22.6401Z" fill="white"/>
<path d="M42.6808 22.3094C42.2258 22.41 41.7708 22.5681 41.6855 22.6688C41.5575 22.8125 41.5717 22.8269 41.7992 22.755C41.9556 22.7119 42.5102 22.5825 43.0363 22.4819C44.0316 22.2663 44.2875 22.3381 44.2875 22.8269C44.2875 23.1863 43.3206 23.905 42.695 24.02C42.3964 24.0775 42.1547 24.1925 42.1547 24.2788C42.1547 24.8106 42.4959 26.2625 42.6097 26.2625C42.9794 26.2625 44.6998 25.6588 44.842 25.4863C44.97 25.3425 44.9416 24.94 44.7283 23.8331C44.5719 23.0281 44.4013 22.3094 44.3586 22.2375C44.2448 22.0506 43.7188 22.0794 42.6808 22.3094Z" fill="white"/>
<path d="M33.7088 24.135C33.5808 24.3938 33.2111 25.6013 32.8983 26.8232C32.4575 28.4907 32.3438 29.195 32.4007 29.6119C32.4575 29.9282 32.5286 30.2444 32.5713 30.3019C32.5997 30.3594 32.9694 30.2588 33.3817 30.0719C33.7799 29.8707 34.2633 29.7125 34.4339 29.7125C34.6046 29.7125 34.8605 29.5975 35.0027 29.4538C35.1449 29.31 35.5288 29.08 35.87 28.9219C36.2682 28.7494 36.4957 28.5482 36.5525 28.3182C36.6094 28.1313 36.5667 27.1394 36.4672 26.1188C36.3819 25.0982 36.3392 24.1925 36.3961 24.1063C36.5241 23.8907 36.0407 23.9338 35.2444 24.1925C34.3344 24.5088 34.178 24.6525 33.6946 25.6875C33.4671 26.1619 33.268 26.5213 33.2253 26.4925C33.14 26.3919 33.9078 24.1207 34.0642 24.0344C34.2207 23.9194 34.2349 23.675 34.0785 23.675C34.0074 23.675 33.851 23.8907 33.7088 24.135ZM34.9032 28.4188V29.2813L34.4482 29.2669C34.1069 29.2525 34.0642 29.2238 34.306 29.1807C34.5761 29.1232 34.6188 29.0225 34.6188 28.4907V27.8582L34.0927 27.9444C33.2822 28.0738 33.1685 28.2175 33.2253 29.0944C33.2538 29.7269 33.2253 29.8563 33.0263 29.8563C32.8272 29.8563 32.7988 29.7269 32.8557 28.8932C32.9267 27.7719 33.14 27.4413 33.8936 27.3838C34.761 27.2975 34.9032 27.4557 34.9032 28.4188Z" fill="white"/>
<path d="M38.1734 39.2719C34.5476 40.8531 33.6803 41.3131 33.922 41.5575C33.9647 41.6006 34.9458 41.2125 36.1117 40.7094C37.2776 40.1919 38.2872 39.7894 38.3725 39.8181C38.4578 39.8469 38.6 39.7894 38.6711 39.6888C38.8275 39.5019 42.0978 38.05 42.3822 38.05C42.4817 38.05 42.5243 37.935 42.4817 37.7625C42.439 37.6044 42.3679 37.475 42.3111 37.4894C42.2684 37.5038 40.4058 38.2944 38.1734 39.2719Z" fill="white"/>
<path d="M43.8894 33.91C43.6619 34.14 43.6761 34.3269 43.9178 34.2263C44.0316 34.1831 44.2164 34.2981 44.3444 34.485C44.6572 34.9163 44.6288 35.0169 44.2591 34.9306L43.9321 34.8588L44.2591 35.0888C44.8278 35.5344 44.5719 37.1875 43.9889 36.8138C43.8752 36.7563 43.861 36.7707 43.9178 36.8713C43.9747 36.9575 43.9321 37.1588 43.8325 37.3169C43.7046 37.5469 43.6903 37.6475 43.8183 37.7769C44.0742 38.0357 44.4155 37.82 44.6572 37.2307C44.9842 36.4688 44.8847 34.4563 44.515 34.0394C44.2022 33.6944 44.1169 33.68 43.8894 33.91ZM44.4297 37.3313C44.3444 37.4894 44.2164 37.6188 44.1453 37.6188C44.06 37.6188 44.0742 37.4894 44.1738 37.3313C44.2733 37.1732 44.4013 37.0438 44.4724 37.0438C44.5292 37.0438 44.515 37.1732 44.4297 37.3313Z" fill="white"/>
<path d="M43.8894 35.9513C43.9321 36.5838 44.2022 36.7994 44.3302 36.2963C44.4013 36.0663 44.3302 35.8794 44.1311 35.6782L43.8467 35.3907L43.8894 35.9513Z" fill="white"/>
<path d="M31.4196 38.5388C31.1921 38.8838 30.9219 39.7031 30.9219 40.0194C30.9219 40.12 31.0214 40.1631 31.1352 40.12C31.3058 40.0481 31.32 39.9763 31.1921 39.8325C31.0356 39.6456 31.121 39.5738 31.3911 39.6169C31.4622 39.6313 31.4764 39.5163 31.4338 39.3725C31.3769 39.2144 31.4338 39.0275 31.5617 38.9125C31.7466 38.7544 31.8319 38.7831 32.0594 39.0563C32.3864 39.4444 32.4291 39.66 32.1447 39.545C31.8603 39.43 31.6328 39.9331 31.6328 40.6663C31.6328 41.4569 31.7892 41.7013 32.2016 41.5719C32.486 41.4856 32.5002 41.5 32.358 41.7731C32.2585 41.9456 32.1305 42.075 32.0594 42.075C31.8888 42.075 31.4906 41.6581 31.4906 41.4713C31.4906 41.3994 31.4053 41.3563 31.2916 41.3994C31.0641 41.4856 30.865 40.9681 31.0783 40.8388C31.1494 40.7956 31.1636 40.695 31.121 40.6088C30.7513 40.005 30.8366 42.0894 31.2063 42.7794C31.4622 43.2681 31.8461 43.3975 32.1589 43.11C32.3011 42.9806 32.358 42.9088 32.2869 42.9663C31.9599 43.225 31.9599 43.0381 32.2727 42.4631C32.8699 41.3419 32.8414 39.7606 32.2016 38.8838C31.8461 38.3806 31.903 38.2369 32.3722 38.4956C32.6708 38.6538 32.685 38.6538 32.5002 38.4381C32.2158 38.0788 31.6755 38.1363 31.4196 38.5388ZM32.358 40.235C32.4717 40.6663 32.358 41.385 32.2016 41.2844C32.1447 41.2556 32.1305 41.0688 32.1589 40.8819C32.2016 40.695 32.1305 40.465 32.0025 40.3644C31.775 40.1775 31.8461 39.7319 32.1021 39.8181C32.1874 39.8469 32.3011 40.0338 32.358 40.235Z" fill="white"/>
<path d="M17.1297 46.8188C17.1297 47.0344 17.2292 47.1063 17.4852 47.1063H17.8406V49.0469C17.8406 50.8869 17.8549 50.9875 18.125 50.9875C18.3952 50.9875 18.4094 50.8869 18.4094 49.0469V47.1063H18.7649C19.0208 47.1063 19.1203 47.0344 19.1203 46.8188C19.1203 46.56 19.0208 46.5313 18.125 46.5313C17.2292 46.5313 17.1297 46.56 17.1297 46.8188Z" fill="white"/>
<path d="M19.6891 48.7594C19.6891 50.8869 19.7033 50.9875 19.9735 50.9875C20.2436 50.9875 20.2578 50.8869 20.2578 49.0469V47.1063H20.6844C21.0967 47.1063 21.111 47.1207 21.111 47.825C21.111 48.4432 21.0683 48.5438 20.8266 48.5438C20.4427 48.5438 20.4569 48.86 20.8835 49.9957C21.1394 50.6857 21.2958 50.93 21.5233 50.9588C21.8788 51.0163 21.8788 51.0738 21.5375 50.0532C21.1963 49.0613 21.1963 48.975 21.4522 48.975C21.566 48.975 21.6939 48.8744 21.7366 48.745C21.893 48.3425 21.8219 46.8763 21.6513 46.7038C21.5517 46.6032 21.0967 46.5313 20.5849 46.5313H19.6891V48.7594Z" fill="white"/>
<path d="M23.3149 46.7038C23.258 46.9194 22.5328 50.7432 22.5328 50.8869C22.5328 50.9444 22.6608 50.9875 22.8172 50.9875C23.0305 50.9875 23.13 50.8582 23.2011 50.5563C23.258 50.1969 23.3433 50.125 23.6703 50.125C23.9974 50.125 24.0827 50.1969 24.1538 50.5563C24.2106 50.8725 24.3102 50.9875 24.5377 50.9875C24.7936 50.9875 24.8221 50.93 24.7652 50.585C24.7225 50.3694 24.5377 49.3775 24.3528 48.3569C24.0542 46.6463 24.0116 46.5313 23.6988 46.5313C23.5281 46.5313 23.3575 46.6175 23.3149 46.7038ZM23.8836 48.7882C23.9831 49.5069 23.9689 49.55 23.6703 49.55C23.3717 49.55 23.3575 49.4925 23.4428 49.0038C23.4855 48.7163 23.5281 48.3138 23.5281 48.1125C23.5281 47.5232 23.7699 47.9832 23.8836 48.7882Z" fill="white"/>
<path d="M25.5187 48.7594C25.5187 50.8725 25.533 50.9875 25.8031 50.9875C26.0591 50.9875 26.0875 50.8725 26.1159 49.6507L26.1586 48.3282L26.642 49.6507C27.0117 50.6857 27.1823 50.9875 27.3814 50.9875C27.6373 50.9875 27.6516 50.8438 27.6516 48.7594C27.6516 46.6463 27.6373 46.5313 27.3672 46.5313C27.1255 46.5313 27.097 46.6463 27.0544 47.7819L27.0117 49.0469L26.5283 47.7819C26.1586 46.8332 25.988 46.5313 25.7889 46.5313C25.533 46.5313 25.5187 46.6894 25.5187 48.7594Z" fill="white"/>
<path d="M28.6042 46.6175C28.5474 46.675 28.5047 47.0488 28.5047 47.4656C28.5047 48.1556 28.5474 48.2419 29.2156 48.9031C29.7275 49.4206 29.9266 49.7225 29.9266 50.01C29.9266 50.355 29.8697 50.4125 29.5 50.4125C29.1161 50.4125 29.0734 50.3694 29.0734 49.9813C29.0734 49.6363 29.0166 49.55 28.7749 49.55C28.5189 49.55 28.4905 49.6219 28.5331 50.2256L28.5758 50.9156H29.5H30.4242L30.4669 50.125C30.5095 49.3488 30.4953 49.32 29.7844 48.6156C29.2725 48.0981 29.0734 47.7963 29.0734 47.5088C29.0734 47.1638 29.1303 47.1063 29.5 47.1063C29.8839 47.1063 29.9266 47.1494 29.9266 47.5375C29.9266 47.8825 29.9834 47.9688 30.2252 47.9688C30.4811 47.9688 30.5095 47.8969 30.4669 47.2788L30.4242 46.6031L29.5711 46.56C29.0877 46.5313 28.6611 46.56 28.6042 46.6175Z" fill="white"/>
<path d="M31.3484 48.7594C31.3484 50.8869 31.3627 50.9875 31.6328 50.9875C31.8888 50.9875 31.9172 50.8869 31.9172 50.1969V49.4063H32.5286C32.8699 49.4063 33.2111 49.3344 33.3106 49.2338C33.4102 49.1332 33.4813 48.63 33.4813 47.9688C33.4813 47.3075 33.4102 46.8044 33.3106 46.7038C33.2111 46.6032 32.7561 46.5313 32.2442 46.5313H31.3484V48.7594ZM32.7703 47.9688V48.8313H32.3438H31.9172V47.9688V47.1063H32.3438H32.7703V47.9688Z" fill="white"/>
<path d="M34.2633 46.7181C34.2206 46.8188 34.2064 47.8106 34.2206 48.9031L34.2633 50.9156H35.2586H36.2539V48.7594V46.6031L35.287 46.56C34.5903 46.5313 34.3059 46.5744 34.2633 46.7181ZM35.7562 48.7594V50.4125H35.2586H34.7609V48.7594V47.1063H35.2586H35.7562V48.7594Z" fill="white"/>
<path d="M37.1781 48.7594C37.1781 50.8869 37.1923 50.9875 37.4625 50.9875C37.7326 50.9875 37.7469 50.8869 37.7469 49.0469V47.1063H38.1734C38.5858 47.1063 38.6 47.1207 38.6 47.825C38.6 48.4432 38.5573 48.5438 38.3156 48.5438C37.9317 48.5438 37.9459 48.86 38.3725 49.9957C38.6284 50.6857 38.7848 50.93 39.0123 50.9588C39.3678 51.0163 39.3678 51.0738 39.0265 50.0532C38.6853 49.0613 38.6853 48.975 38.9412 48.975C39.055 48.975 39.1829 48.8744 39.2256 48.745C39.382 48.3425 39.3109 46.8763 39.1403 46.7038C39.0408 46.6032 38.5858 46.5313 38.0739 46.5313H37.1781V48.7594Z" fill="white"/>
<path d="M40.0219 46.8188C40.0219 47.0344 40.1214 47.1063 40.3773 47.1063H40.7328V49.0469C40.7328 50.8869 40.747 50.9875 41.0172 50.9875C41.2873 50.9875 41.3015 50.8869 41.3015 49.0469V47.1063H41.657C41.9129 47.1063 42.0125 47.0344 42.0125 46.8188C42.0125 46.56 41.9129 46.5313 41.0172 46.5313C40.1214 46.5313 40.0219 46.56 40.0219 46.8188Z" fill="white"/>
</g>
<defs>
<clipPath id="clip0_12_2">
<rect width="60" height="60" fill="white"/>
</clipPath>
</defs>
</svg>
