<svg width="30" height="30" viewBox="0 0 30 30" fill="none" xmlns="http://www.w3.org/2000/svg">
<g clip-path="url(#clip0_1_48)">
<path d="M24.6736 25.2856C24.6592 23.4641 24.6359 14.7954 25.4843 11.5326L22.2555 8.87455V24.6581C22.0687 24.6205 21.8819 24.5828 21.6858 24.5477V8.87352L17.9829 11.3422C18.4648 13.4888 18.6857 20.9768 18.761 24.1689C18.5536 24.1519 18.34 24.137 18.1258 24.122C18.1315 23.1957 18.1464 22.2643 18.1795 21.3308C18.1372 20.0077 18.0809 18.5242 18.0092 17.101L17.3853 16.9044V15.4384H17.9137C17.8043 13.7159 17.6665 12.2349 17.4952 11.4722L17.4054 11.0728L18.276 10.4923L17.6015 10.2766L17.841 8.9824L18.7481 9.2688L18.6325 10.2549L19.0928 9.94788C19.4804 6.65979 19.8349 4.45895 19.8349 4.45895L15.4198 0.945869V24.0131C15.2738 24.0121 15.1365 24.0141 14.993 24.0141V0.614067L10.0557 4.41148C10.0557 4.41148 10.2265 5.53692 10.4608 7.38789L11.5899 8.22695V7.17632L12.6126 6.78982V8.01383L11.8566 8.4251L12.9687 9.2528L12.8639 9.64446C12.3247 11.6533 11.8974 16.0024 11.6141 19.6625C11.6998 21.1394 11.7519 22.6364 11.7823 24.1225C11.4959 24.1442 11.2157 24.1674 10.9433 24.1947C11.1414 20.8483 11.6993 12.5651 12.5239 9.48965L8.63151 6.59425V24.5152C8.43903 24.5498 8.24552 24.5838 8.06182 24.621V6.59528L4.21745 9.44321C5.20151 12.8226 5.52918 23.253 5.58491 25.2825C0.864853 26.8719 0 29.3859 0 29.3859H30C30 29.3859 29.4938 26.876 24.6736 25.2856ZM18.0979 4.51262L19.2136 5.03844L19.0577 6.40229L17.9731 5.99979L18.0979 4.51262ZM17.9736 6.61954L18.9958 7.03803L18.7786 8.57217L17.8415 8.20011L17.9736 6.61954ZM11.5899 6.40281L11.2797 5.1014L12.3335 4.54925L12.6126 6.00031L11.5899 6.40281ZM10.9392 9.50152L11.9067 10.0212L11.706 10.9887L10.871 10.7415L10.9392 9.50152ZM10.7998 11.2684L11.6059 11.4696L11.5135 12.5393L10.8009 12.2591L10.7998 11.2684ZM10.707 12.8252L11.4211 13.1137L11.3427 14.3201L10.6295 13.976L10.707 12.8252ZM10.5558 14.5725L11.1874 14.6891L11.11 15.7537L10.5558 15.5746V14.5725ZM10.4278 16.1949H11.11V17.3925L10.4278 17.3409V16.1949ZM10.1027 22.2354L9.3591 22.0491V20.8096L10.1027 21.1193V22.2354ZM10.1027 20.5274L9.3591 20.3406V19.1011L10.1027 19.4117V20.5274ZM10.1027 18.8188L9.3591 18.6331V17.3931L10.1027 17.7037V18.8188ZM10.1027 17.1103L9.3591 16.9245V15.685L10.1027 15.9951V17.1103ZM10.1027 15.4017L9.3591 15.216V13.976L10.1027 14.2861V15.4017ZM10.1027 13.6937L9.3591 13.5069V12.2669L10.1027 12.577V13.6937ZM10.1027 11.9857L9.3591 11.7994V10.5599L10.1027 10.8695V11.9857ZM10.1027 10.2771L9.3591 10.0908V8.85082L10.1027 9.16095V10.2771ZM10.7998 22.2354H10.3117V21.1683H10.7998V22.2354ZM10.7998 20.5274H10.3117V19.4602H10.7998V20.5274ZM10.7998 18.8188H10.3117V17.7522H10.7998V18.8188ZM12.334 13.5306L12.962 13.1735L13.0781 14.6948L12.3345 14.8016L12.334 13.5306ZM13.2401 21.1678H12.705V19.7508H13.2401V21.1678ZM13.2401 19.0536L12.6131 19.1475V17.5891L13.2401 17.4725V19.0536ZM12.6126 16.813V15.5209L13.077 15.3816L13.2396 16.7687L12.6126 16.813ZM14.3795 20.9675L13.7597 21.2627V19.6816L14.3795 19.3261V20.9675ZM14.3795 18.7053L13.7597 19.0531V17.4725L14.3795 17.0628V18.7053ZM14.3795 16.4436L13.7597 16.7692V15.1886L14.3795 14.8021V16.4436ZM14.3795 14.1808L13.6199 14.5214V12.9418L14.3795 12.5393V14.1808ZM14.3795 11.9191L13.5425 12.2597V10.6796L14.3795 10.2776V11.9191ZM14.3795 9.65684L13.5425 9.95098V8.37092L14.3795 8.01486V9.65684ZM14.3795 7.3946L13.4501 7.82858V6.248L14.3795 5.75262V7.3946ZM14.3795 5.13236L13.3258 5.53486V3.9548L14.3795 3.49038V5.13236ZM16.1216 3.48986L17.2145 4.10909V5.60865L16.1216 5.03896V3.48986ZM16.6572 21.2627L16.1216 21.0769V19.565L16.6572 19.7508V21.2627ZM16.6572 19.0536L16.1216 18.8575V16.9359L16.6572 17.2749V19.0536ZM16.8213 16.7687L16.1226 16.2723V14.6948L16.8213 15.2191V16.7687ZM16.8213 14.5219L16.1226 14.0033V12.4542L16.8213 13.0234V14.5219ZM16.9204 12.1621L16.1216 11.7622V10.2131L16.9204 10.6631V12.1621ZM16.9983 10.0186L16.1216 9.52113V7.97203L16.9983 8.52005V10.0186ZM16.9983 7.68099L16.1216 7.28056V5.73146L16.9983 6.18195V7.68099ZM17.7414 21.2627L17.2063 21.0769V19.565L17.7414 19.7508V21.2627ZM17.8425 19.147L17.2769 19.0531V17.5422L17.8425 17.6655V19.147ZM23.9543 11.5176L24.768 11.9067V12.8247L23.9543 12.3598V11.5176ZM23.7917 17.2501L24.3418 17.4457V18.3632L23.7917 18.0933V17.2501ZM23.7917 18.7342L24.3418 18.9287V19.8462L23.7917 19.5769V18.7342ZM23.7917 20.2183L24.3418 20.4128V21.3308L23.7917 21.0615V20.2183ZM23.3268 23.2576L22.6766 23.0022V21.9681L23.3268 22.2829V23.2576ZM23.3268 21.8706L22.6766 21.6146V20.5816L23.3268 20.8963V21.8706ZM23.3268 20.4835L22.6766 20.2276V19.1945L23.3268 19.5087V20.4835ZM23.3268 19.097L22.6766 18.8405V17.8074L23.3268 18.1212V19.097ZM23.3268 17.7104L22.6766 17.4545V16.4204L23.3268 16.7341V17.7104ZM23.3268 16.3233L22.6766 16.0679V15.0333L23.3268 15.3481V16.3233ZM23.3268 14.9363L22.6766 14.6803V13.6462L23.3268 13.961V14.9363ZM23.3268 13.5497L22.6766 13.2938V12.2597L23.3268 12.575V13.5497ZM23.3268 12.1621L22.6766 11.9067V10.8726L23.3268 11.1879V12.1621ZM24.4192 22.7174L23.7917 22.544V21.7008L24.4192 21.7999V22.7174ZM24.4192 16.9699L23.7917 16.6092V15.7666L24.4192 16.0519V16.9699ZM24.6055 15.5901L23.7917 15.2345V14.283L24.6055 14.6721V15.5901ZM24.6055 14.203L23.7917 13.7381V12.8954L24.6055 13.285V14.203Z" fill="#9AA6B2"/>
<path d="M26.5387 24.2161L25.1572 20.7731C24.7281 19.6974 23.7191 19 22.6016 19H7.00393C5.90059 19 5.00471 19.9332 5.00471 21.0825V27.0599C5.00471 27.3694 5.24519 27.6149 5.53752 27.6149H26.0483C26.3454 27.6149 26.5811 27.3644 26.5811 27.0599V24.4322C26.5811 24.3585 26.567 24.2849 26.5387 24.2161Z" fill="#F1F3F7"/>
<path d="M26.5387 24.2161L25.1572 20.7731C24.7281 19.6974 23.7191 19 22.6016 19H7.00393C5.90059 19 5.00471 19.9332 5.00471 21.0825V21.446C5.00471 20.2967 5.90059 19.3635 7.00393 19.3635H22.5969C23.7143 19.3635 24.7234 20.0609 25.1525 21.1365L26.534 24.5796C26.5623 24.6483 26.5764 24.722 26.5764 24.7957V24.4322C26.5811 24.3585 26.567 24.2849 26.5387 24.2161Z" fill="#FCFCFD"/>
<path d="M5.00471 27.001V27.055C5.00471 27.3644 5.24519 27.61 5.53752 27.61H26.0483C26.3454 27.61 26.5811 27.3595 26.5811 27.055V27.001H5.00471Z" fill="#DEDEDF"/>
<path d="M5.00472 25.0167H26.5811V24.4322C26.5811 24.3585 26.567 24.2849 26.5387 24.2161L26.3124 23.6562H5V25.0167H5.00472Z" fill="#015551"/>
<path d="M12.5065 20.0118H9.25777V23.4352H12.5065V20.0118Z" fill="#414753"/>
<path d="M21.7529 20.0118H12.9167V23.4352H21.7529V20.0118Z" fill="#414753"/>
<path d="M8.85226 20.0118H6.20708C5.94775 20.0118 5.73557 20.2328 5.73557 20.5029V22.944C5.73557 23.2141 5.94775 23.4352 6.20708 23.4352H8.85226V20.0118Z" fill="#414753"/>
<path d="M24.9026 21.1316C24.6055 20.4538 23.9548 20.0118 23.2381 20.0118H22.1631V21.1316H24.9026Z" fill="#414753"/>
<path d="M25.8126 23.4352L25.0157 21.4165H22.1584V23.4352H23.1014L24.1481 24.6925C24.1481 24.6925 25.2468 24.6925 25.7183 24.6925C26.1898 24.6925 25.8126 23.4352 25.8126 23.4352Z" fill="#414753"/>
<path d="M19.1925 20.5422H16.2833V27.3644H19.1925V20.5422Z" fill="#393D47"/>
<path d="M17.6884 20.6699H16.4059V27.2367H17.6884V20.6699Z" fill="#F1F3F7"/>
<path d="M19.0699 20.6699H17.7874V27.2367H19.0699V20.6699Z" fill="#F1F3F7"/>
<path d="M12.4263 27.335C12.4263 26.3674 11.6719 25.5815 10.743 25.5815C9.81415 25.5815 9.05973 26.3674 9.05973 27.335C9.05973 27.4283 9.06916 27.5216 9.08331 27.6149H12.4075C12.4169 27.5216 12.4263 27.4332 12.4263 27.335Z" fill="#02050C"/>
<path d="M24.5206 27.335C24.5206 26.3674 23.7662 25.5815 22.8373 25.5815C21.9084 25.5815 21.154 26.3674 21.154 27.335C21.154 27.4283 21.1635 27.5216 21.1776 27.6149H24.5018C24.5112 27.5216 24.5206 27.4332 24.5206 27.335Z" fill="#02050C"/>
<path d="M10.7383 28.7937C11.5117 28.7937 12.1387 28.1406 12.1387 27.335C12.1387 26.5293 11.5117 25.8762 10.7383 25.8762C9.9649 25.8762 9.33792 26.5293 9.33792 27.335C9.33792 28.1406 9.9649 28.7937 10.7383 28.7937Z" fill="#4F5565"/>
<path d="M10.7383 28.1945C11.194 28.1945 11.5635 27.8097 11.5635 27.335C11.5635 26.8603 11.194 26.4754 10.7383 26.4754C10.2826 26.4754 9.91317 26.8603 9.91317 27.335C9.91317 27.8097 10.2826 28.1945 10.7383 28.1945Z" fill="#BDBDBE"/>
<path d="M10.7383 27.8752C11.0248 27.8752 11.257 27.6334 11.257 27.335C11.257 27.0366 11.0248 26.7947 10.7383 26.7947C10.4519 26.7947 10.2197 27.0366 10.2197 27.335C10.2197 27.6334 10.4519 27.8752 10.7383 27.8752Z" fill="#F1F3F7"/>
<path d="M10.7383 27.6641C10.9128 27.6641 11.0542 27.5167 11.0542 27.335C11.0542 27.1532 10.9128 27.0059 10.7383 27.0059C10.5638 27.0059 10.4224 27.1532 10.4224 27.335C10.4224 27.5167 10.5638 27.6641 10.7383 27.6641Z" fill="#646B79"/>
<path d="M10.7383 26.7259C10.793 26.7259 10.8373 26.6864 10.8373 26.6375C10.8373 26.5887 10.793 26.5491 10.7383 26.5491C10.6836 26.5491 10.6393 26.5887 10.6393 26.6375C10.6393 26.6864 10.6836 26.7259 10.7383 26.7259Z" fill="#646B79"/>
<path d="M10.7383 28.1257C10.793 28.1257 10.8373 28.0862 10.8373 28.0373C10.8373 27.9885 10.793 27.9489 10.7383 27.9489C10.6836 27.9489 10.6393 27.9885 10.6393 28.0373C10.6393 28.0862 10.6836 28.1257 10.7383 28.1257Z" fill="#646B79"/>
<path d="M11.4126 27.4381C11.4595 27.4381 11.4974 27.3919 11.4974 27.335C11.4974 27.278 11.4595 27.2318 11.4126 27.2318C11.3657 27.2318 11.3277 27.278 11.3277 27.335C11.3277 27.3919 11.3657 27.4381 11.4126 27.4381Z" fill="#646B79"/>
<path d="M10.0688 27.4381C10.1156 27.4381 10.1536 27.3919 10.1536 27.335C10.1536 27.278 10.1156 27.2318 10.0688 27.2318C10.0219 27.2318 9.98389 27.278 9.98389 27.335C9.98389 27.3919 10.0219 27.4381 10.0688 27.4381Z" fill="#646B79"/>
<path d="M11.2865 26.911C11.3197 26.8764 11.3152 26.8158 11.2765 26.7755C11.2379 26.7352 11.1796 26.7306 11.1465 26.7651C11.1134 26.7996 11.1178 26.8603 11.1565 26.9005C11.1952 26.9408 11.2534 26.9455 11.2865 26.911Z" fill="#646B79"/>
<path d="M10.3371 27.9059C10.3702 27.8714 10.3658 27.8107 10.3271 27.7704C10.2884 27.7302 10.2302 27.7255 10.1971 27.76C10.1639 27.7945 10.1684 27.8552 10.2071 27.8955C10.2457 27.9357 10.304 27.9404 10.3371 27.9059Z" fill="#646B79"/>
<path d="M11.1485 27.9034C11.1816 27.9379 11.2399 27.9333 11.2785 27.893C11.3172 27.8527 11.3217 27.7921 11.2886 27.7576C11.2554 27.723 11.1972 27.7277 11.1585 27.768C11.1198 27.8082 11.1154 27.8689 11.1485 27.9034Z" fill="#646B79"/>
<path d="M10.1944 26.9154C10.2276 26.95 10.2858 26.9453 10.3245 26.905C10.3631 26.8648 10.3676 26.8041 10.3345 26.7696C10.3013 26.7351 10.2431 26.7397 10.2045 26.78C10.1658 26.8203 10.1613 26.8809 10.1944 26.9154Z" fill="#646B79"/>
<path d="M22.8326 28.7937C23.606 28.7937 24.233 28.1406 24.233 27.335C24.233 26.5293 23.606 25.8762 22.8326 25.8762C22.0592 25.8762 21.4322 26.5293 21.4322 27.335C21.4322 28.1406 22.0592 28.7937 22.8326 28.7937Z" fill="#4F5565"/>
<path d="M22.8326 28.1945C23.2883 28.1945 23.6578 27.8097 23.6578 27.335C23.6578 26.8603 23.2883 26.4754 22.8326 26.4754C22.3769 26.4754 22.0075 26.8603 22.0075 27.335C22.0075 27.8097 22.3769 28.1945 22.8326 28.1945Z" fill="#BDBDBE"/>
<path d="M22.8326 27.8752C23.1191 27.8752 23.3513 27.6334 23.3513 27.335C23.3513 27.0366 23.1191 26.7947 22.8326 26.7947C22.5462 26.7947 22.3139 27.0366 22.3139 27.335C22.3139 27.6334 22.5462 27.8752 22.8326 27.8752Z" fill="#F1F3F7"/>
<path d="M22.8326 27.6641C23.0071 27.6641 23.1485 27.5167 23.1485 27.335C23.1485 27.1532 23.0071 27.0059 22.8326 27.0059C22.6581 27.0059 22.5167 27.1532 22.5167 27.335C22.5167 27.5167 22.6581 27.6641 22.8326 27.6641Z" fill="#646B79"/>
<path d="M22.8326 26.7259C22.8873 26.7259 22.9316 26.6864 22.9316 26.6375C22.9316 26.5887 22.8873 26.5491 22.8326 26.5491C22.7779 26.5491 22.7336 26.5887 22.7336 26.6375C22.7336 26.6864 22.7779 26.7259 22.8326 26.7259Z" fill="#646B79"/>
<path d="M22.8326 28.1257C22.8873 28.1257 22.9316 28.0862 22.9316 28.0373C22.9316 27.9885 22.8873 27.9489 22.8326 27.9489C22.7779 27.9489 22.7336 27.9885 22.7336 28.0373C22.7336 28.0862 22.7779 28.1257 22.8326 28.1257Z" fill="#646B79"/>
<path d="M23.5069 27.4381C23.5538 27.4381 23.5917 27.3919 23.5917 27.335C23.5917 27.278 23.5538 27.2318 23.5069 27.2318C23.46 27.2318 23.422 27.278 23.422 27.335C23.422 27.3919 23.46 27.4381 23.5069 27.4381Z" fill="#646B79"/>
<path d="M22.1631 27.4381C22.2099 27.4381 22.2479 27.3919 22.2479 27.335C22.2479 27.278 22.2099 27.2318 22.1631 27.2318C22.1162 27.2318 22.0782 27.278 22.0782 27.335C22.0782 27.3919 22.1162 27.4381 22.1631 27.4381Z" fill="#646B79"/>
<path d="M23.3808 26.9115C23.4139 26.877 23.4095 26.8163 23.3708 26.776C23.3321 26.7358 23.2739 26.7311 23.2408 26.7656C23.2076 26.8002 23.2121 26.8608 23.2508 26.9011C23.2894 26.9414 23.3476 26.946 23.3808 26.9115Z" fill="#646B79"/>
<path d="M22.428 27.9026C22.4612 27.8681 22.4567 27.8074 22.418 27.7672C22.3794 27.7269 22.3212 27.7222 22.288 27.7567C22.2549 27.7913 22.2593 27.8519 22.298 27.8922C22.3367 27.9325 22.3949 27.9371 22.428 27.9026Z" fill="#646B79"/>
<path d="M23.241 27.9036C23.2741 27.9381 23.3323 27.9335 23.371 27.8932C23.4097 27.8529 23.4142 27.7923 23.381 27.7578C23.3479 27.7232 23.2897 27.7279 23.251 27.7682C23.2123 27.8084 23.2078 27.8691 23.241 27.9036Z" fill="#646B79"/>
<path d="M22.2903 26.9122C22.3234 26.9467 22.3816 26.942 22.4203 26.9018C22.459 26.8615 22.4634 26.8009 22.4303 26.7663C22.3972 26.7318 22.3389 26.7365 22.3003 26.7767C22.2616 26.817 22.2571 26.8776 22.2903 26.9122Z" fill="#646B79"/>
<path d="M17.5422 21.0334H16.6417V23.7741H17.5422V21.0334Z" fill="#393D47"/>
<path d="M18.8342 21.0334H17.9336V23.7741H18.8342V21.0334Z" fill="#393D47"/>
<path d="M23.4126 23.4352L24.299 24.5255H25.5627C25.5627 24.5255 25.789 24.4077 25.7136 23.9804C25.6381 23.553 25.5155 23.4352 25.5155 23.4352H23.4126Z" fill="#333842"/>
<path d="M26.5811 25.1788H25.954V26.4754H26.5811V25.1788Z" fill="#FBD303"/>
<path d="M19.1925 20.0118H16.2833V20.6699H19.1925V20.0118Z" fill="#393D47"/>
</g>
<defs>
<clipPath id="clip0_1_48">
<rect width="30" height="30" fill="white"/>
</clipPath>
</defs>
</svg>
