<svg width="60" height="60" viewBox="0 0 60 60" fill="none" xmlns="http://www.w3.org/2000/svg">
<g clip-path="url(#clip0_12_2)">
<path d="M33.3005 3.32092C32.3608 4.05592 31.512 4.68592 31.4059 4.74592C31.2998 4.80592 30.9816 4.76092 30.6784 4.64092C30.1934 4.43092 30.1177 4.43092 30.0419 4.64092C29.9964 4.76092 30.0722 4.98592 30.2237 5.15092C30.4814 5.43592 30.4814 5.45092 30.1328 5.73592C29.663 6.12592 29.5569 6.12592 28.5262 5.66092C26.3589 4.70092 24.5705 4.29592 24.2977 4.71592C24.0097 5.18092 24.9797 5.99092 27.3441 7.25092C28.693 7.97092 28.7839 8.04592 28.7839 8.64592C28.7839 9.03592 28.7536 9.06592 28.3444 8.97592C27.6775 8.84092 27.6017 9.27592 28.2231 9.65092C28.4808 9.81592 28.7536 9.96592 28.8294 9.99592C28.89 10.0109 29.0719 11.1809 29.2537 12.5759C29.5266 14.9309 29.6933 15.5609 29.9358 15.3209C30.0116 15.2309 30.6027 13.1609 30.9664 11.7059C31.0119 11.4809 31.1483 11.3009 31.2544 11.3009C31.3453 11.3009 31.5423 11.2409 31.6636 11.1509C31.8455 11.0459 31.8455 10.9709 31.603 10.7309C31.2847 10.3709 31.4059 9.35092 31.7697 9.35092C31.8758 9.35092 32.5123 9.59092 33.1641 9.89092L34.3462 10.4159L34.7706 11.6159C35.1495 12.7109 35.3769 13.0859 35.5436 12.9209C35.5739 12.8759 35.68 12.2909 35.7861 11.6009C35.9528 10.4609 36.0286 10.2659 36.7712 9.24592C37.4836 8.25592 37.6958 7.85092 37.5139 7.85092C37.4836 7.85092 36.9077 8.06092 36.2408 8.31592L35.0283 8.76592L33.8006 8.15092C33.1186 7.82092 32.573 7.46092 32.573 7.35592C32.573 7.05592 32.9216 6.68092 33.255 6.62092C33.4823 6.59092 33.5581 6.45592 33.5581 6.05092C33.5581 5.67592 33.8461 5.06092 34.513 3.96592C35.9831 1.52092 35.7861 1.41592 33.3005 3.32092Z" fill="white"/>
<path d="M38.4919 9.7146C38.4161 9.9096 38.1433 10.5246 37.8856 11.0796C37.628 11.6496 37.4158 12.1896 37.4158 12.2796C37.4158 12.3846 37.8856 12.6546 38.4464 12.8946C42.478 14.6346 46.4186 18.1146 48.8133 22.0596C49.95 23.9196 50.9655 26.4846 51.5414 28.8696C51.981 30.7596 52.1022 35.4996 51.7385 37.5846C50.632 44.1546 46.5853 50.0946 40.7502 53.6646C34.9756 57.2046 27.4127 58.0446 20.8197 55.8696C18.228 55.0146 14.0752 52.7646 14.0752 52.2096C14.0752 52.0896 13.9539 51.9846 13.8024 51.9846C13.4235 51.9846 11.726 50.4996 10.4225 49.0446C7.63377 45.9246 5.73924 42.1596 4.81471 37.8846C4.52674 36.5646 4.46611 35.8296 4.46611 33.3096C4.45096 31.3896 4.52674 29.9046 4.66314 29.1846C4.98143 27.4896 5.69377 25.0596 6.30002 23.6646C6.58799 22.9746 6.80018 22.3746 6.73955 22.3296C6.60314 22.1946 5.52705 24.5496 4.99658 26.1096C4.05689 28.8846 3.85986 30.2796 3.85986 33.8346C3.85986 37.3896 4.07205 38.7996 4.99658 41.5596C7.93689 50.2896 15.5302 56.7696 24.7149 58.3446C28.6555 59.0346 33.0963 58.7046 37.0369 57.4446C38.8102 56.8746 42.281 55.1346 43.8572 54.0096C49.8591 49.7496 53.7694 43.1496 54.5575 35.9796C54.7849 33.8646 54.6333 30.1746 54.2392 28.2246C53.1783 22.9446 50.7078 18.4596 46.7824 14.6946C45.1758 13.1496 44.3119 12.4446 42.7963 11.4546C41.6747 10.7346 39.083 9.3846 38.795 9.3846C38.7041 9.3846 38.5677 9.5346 38.4919 9.7146Z" fill="white"/>
<path d="M33.2133 22.855C30.3033 23.065 21.5733 24.595 20.0122 25.165C18.7845 25.615 17.8145 26.635 16.7384 28.6C15.5411 30.745 15.6624 30.61 15.2531 30.4C14.9652 30.25 14.8742 30.265 14.6317 30.505C14.2377 30.895 13.98 32.32 14.2074 32.77C14.4347 33.16 14.2074 33.685 13.3889 34.69C13.0706 35.08 12.7069 35.815 12.4492 36.64C12.2067 37.375 11.8733 38.275 11.6763 38.65C11.4944 39.025 11.267 39.715 11.1609 40.195C10.9488 41.215 10.8881 44.08 11.0397 45.775C11.1003 46.435 11.1458 47.02 11.1609 47.08C11.1913 47.71 21.4217 48.91 28.5149 49.105C32.3191 49.21 32.6525 49.15 33.3649 48.325C33.7286 47.89 43.5044 43.465 44.338 43.345C45.308 43.225 45.7172 42.985 46.0203 42.385C46.2477 41.95 46.3841 41.845 46.6266 41.905C46.8842 41.98 46.9297 41.92 46.9297 41.515C46.9297 41.185 47.0358 40.99 47.3541 40.795C47.5814 40.645 47.8088 40.465 47.8694 40.375C48.0361 40.15 48.0058 33.73 47.8391 31.51C47.5208 27.625 46.7024 24.19 45.8688 23.38C45.6263 23.14 45.217 22.9 44.9442 22.84C44.4592 22.75 34.6228 22.765 33.2133 22.855ZM45.2777 23.44C45.7172 23.665 45.9445 23.92 45.8233 24.055C45.7778 24.085 43.2619 24.595 40.2306 25.165C37.1994 25.735 34.5319 26.275 34.3045 26.38C33.6074 26.65 33.1678 27.505 32.5767 29.74C32.1372 31.435 32.0159 32.2 31.9402 33.835L31.8492 35.845L31.0914 36.115C30.6822 36.265 30.1063 36.385 29.8183 36.385C29.3788 36.4 29.3181 36.355 29.3939 36.1C29.5 35.68 29.3636 35.725 29.1969 36.175L29.0453 36.55H24.9986C20.7549 36.55 17.8145 36.4 15.0409 36.025C14.1467 35.905 13.3434 35.845 13.2677 35.89C12.9949 36.055 13.4647 35.11 13.8891 34.675C14.1164 34.42 14.4802 33.88 14.6924 33.475C15.1622 32.59 15.2228 32.785 14.8136 33.82L14.5105 34.57L14.9349 34.645C16.405 34.945 19.9364 35.11 24.7561 35.11C29.5606 35.125 30.273 35.095 30.4852 34.885C30.7731 34.615 32.3797 29.05 32.3797 28.345C32.3797 27.985 32.2736 27.79 31.9856 27.595C31.6067 27.355 30.9853 27.34 24.7713 27.355L17.9661 27.37L18.3299 26.89C19.2695 25.69 20.3911 25.3 25.7867 24.34C31.637 23.305 34.7138 23.08 41.4735 23.17C44.0197 23.215 44.9745 23.275 45.2777 23.44ZM46.4447 25.675C46.8085 26.95 47.3844 30.01 47.3844 30.67C47.3844 30.985 47.3541 31.03 47.2328 30.85C47.1116 30.655 46.8388 30.715 45.3383 31.225C44.1106 31.63 43.5499 31.765 43.4741 31.645C43.4134 31.555 43.3831 32.035 43.3983 32.695L43.4286 33.925L43.2619 33.025C43.1709 32.53 43.08 32.095 43.0497 32.08C43.0345 32.05 42.0191 32.365 40.8217 32.785C39.6092 33.205 38.5483 33.55 38.4725 33.55C38.2906 33.55 38.23 33.205 37.9117 30.46C37.7753 29.38 37.6086 28.3 37.5328 28.06C37.351 27.535 37.3964 28.06 37.836 31.81C38.1845 34.705 38.3664 37.255 38.2452 37.15C38.1997 37.105 38.0784 36.34 37.9724 35.455C37.8056 33.925 37.7753 33.85 37.4722 33.94C37.2903 34 36.1688 34.39 34.9563 34.81L32.7586 35.575L32.6828 36.925L32.607 38.275L32.3949 35.65C32.1978 33.115 32.1978 32.965 32.5161 31.45C33.0314 28.975 33.5164 27.52 34.0166 27.055C34.4106 26.68 34.9108 26.56 40.0488 25.54C43.1255 24.925 45.7475 24.43 45.8688 24.445C46.0203 24.475 46.2174 24.91 46.4447 25.675ZM20.8913 28.075C21.0125 28.195 20.482 31.195 20.285 31.555C20.088 31.915 19.7091 32.05 19.8455 31.705C20.1638 30.925 20.1789 30.955 19.7394 31.06C18.4359 31.39 17.6478 31.795 17.2689 32.365C16.5869 33.385 16.3899 32.65 16.9052 31.015C17.375 29.5 18.2389 28.285 18.9664 28.105C19.3756 28.015 20.8003 27.985 20.8913 28.075ZM31.5006 28.42C31.6219 28.54 31.4855 29.245 30.9399 31.255C30.5458 32.725 30.1517 34.045 30.0759 34.18C29.9547 34.42 29.6516 34.45 26.8477 34.45C25.0441 34.45 23.7406 34.39 23.7406 34.315C23.7406 34.18 26.4688 29.41 26.878 28.825C27.075 28.54 27.0447 28.51 26.5142 28.345C26.0141 28.18 26.3172 28.165 28.6361 28.195C30.3942 28.225 31.3794 28.3 31.5006 28.42ZM15.3138 31.27C15.2077 31.495 15.0864 31.81 15.0864 31.975C15.0713 32.14 15.0106 31.93 14.95 31.525C14.8288 30.64 14.8742 30.505 15.2531 30.7C15.5108 30.835 15.5108 30.895 15.3138 31.27ZM47.248 33.295C47.157 33.415 46.3992 33.76 45.5808 34.09C44.6108 34.45 44.0045 34.78 43.9136 34.975C43.7772 35.245 43.762 35.215 43.7924 34.825C43.8227 34.405 43.9136 34.345 45.4444 33.76C46.3386 33.43 47.1267 33.115 47.1722 33.055C47.3692 32.875 47.4299 33.085 47.248 33.295ZM39.003 34.615C39.0181 35.335 39.1091 35.455 39.4274 35.2C39.6092 35.05 39.6547 35.05 39.6547 35.245C39.6547 35.5 39.1394 35.725 38.8969 35.575C38.7302 35.47 38.6847 34 38.8666 34C38.9272 34 38.9878 34.27 39.003 34.615ZM37.3964 35.05C37.745 35.05 37.7753 35.425 37.4419 35.56C37.0781 35.695 36.9266 35.53 36.9417 35.005C36.9569 34.735 36.9872 34.645 37.0327 34.78C37.063 34.93 37.2297 35.05 37.3964 35.05ZM46.2022 36.055C46.6114 36.52 46.763 36.925 46.8388 37.765L46.9145 38.575L46.7781 37.9C46.5963 37.105 46.187 36.49 45.7627 36.43C44.9291 36.31 44.2016 37.66 43.9136 39.925C43.6863 41.71 43.6711 41.965 43.8075 42.355C43.8985 42.64 43.8378 42.715 43.4134 42.895C43.1406 43.015 40.9885 43.975 38.6241 45.025C36.2749 46.075 34.2894 46.9 34.2288 46.84C34.1681 46.78 34.0924 45.775 34.0469 44.605C33.9863 42.895 33.9105 42.355 33.668 41.875C33.0466 40.63 31.7734 40.87 30.9853 42.385C30.5003 43.3 30.4094 43.12 30.8792 42.16C31.2581 41.35 32.122 40.6 32.6222 40.6C33.6528 40.6 34.1833 41.56 34.3045 43.675L34.3955 45.07L35.3958 44.65C37.5328 43.75 43.3225 41.215 43.4134 41.14C43.4589 41.08 43.5953 40.33 43.7014 39.475C43.8984 37.75 44.338 36.55 44.9291 36.1C45.3989 35.725 45.8991 35.71 46.2022 36.055ZM45.9142 38.08C46.3386 38.95 46.3083 40.99 45.8385 41.92C45.0958 43.405 44.1409 42.49 44.1561 40.3C44.1713 37.885 45.1867 36.595 45.9142 38.08ZM13.5102 37.96C15.723 38.485 22.6494 38.785 26.3778 38.515C27.6358 38.425 28.6816 38.395 28.727 38.425C28.9392 38.635 28.3481 38.83 27.0599 38.965C25.0289 39.175 24.9834 39.19 24.5136 39.94C24.2711 40.315 24.0286 40.555 23.9831 40.48C23.9377 40.405 22.1795 40.3 20.0728 40.24C17.9661 40.18 15.8594 40.09 15.4047 40.03C14.5711 39.925 14.5711 39.925 14.5256 39.385C14.465 38.725 14.1922 38.47 13.3283 38.215C12.9191 38.11 12.6766 37.945 12.6766 37.795C12.6766 37.63 12.7372 37.6 12.8736 37.705C12.9645 37.795 13.2525 37.9 13.5102 37.96ZM31.2127 38.155C30.955 38.335 30.8641 38.545 30.8489 39.01C30.8489 39.34 30.7883 39.895 30.7277 40.225C30.6064 40.81 30.5913 40.795 30.5761 39.91C30.5609 38.785 30.3639 38.575 29.5 38.71C28.9241 38.8 28.8938 38.785 28.8938 38.395C28.8938 38.11 28.9392 38.035 29.0605 38.155C29.1666 38.26 29.5 38.245 30.1517 38.125C31.4552 37.87 31.6067 37.87 31.2127 38.155ZM13.0403 38.53C13.9952 38.8 14.0558 38.89 14.0103 39.91L13.9649 40.825L13.1464 40.795C12.3583 40.75 11.6156 40.45 11.6156 40.15C11.6156 39.925 12.237 38.35 12.328 38.35C12.3734 38.35 12.6917 38.425 13.0403 38.53ZM30.0759 40.015C30.1063 40.765 30.0608 41.05 29.8789 41.2C29.5909 41.425 28.2117 41.59 28.0905 41.41C28.0602 41.335 28.0753 40.945 28.1359 40.54C28.2269 39.895 28.2269 39.835 28.045 40.075C27.9238 40.225 27.8328 40.615 27.8328 40.93V41.5H26.1808C24.9986 41.5 24.4984 41.44 24.453 41.305C24.3772 41.095 24.9834 39.835 25.2866 39.595C25.4684 39.445 29.2272 38.965 29.8031 39.01C29.9699 39.025 30.0456 39.265 30.0759 40.015ZM42.9891 39.325C43.5195 39.595 43.5802 39.85 43.1406 39.85C42.9588 39.85 41.9584 40.195 40.9127 40.6C39.8517 41.02 38.912 41.335 38.8363 41.305C38.7453 41.275 38.6089 41.335 38.518 41.425C38.4422 41.53 37.9572 41.77 37.457 41.95C36.9569 42.13 36.2445 42.43 35.8808 42.64C35.517 42.835 35.1836 42.985 35.1684 42.955C35.1381 42.925 35.32 42.625 35.5777 42.28C35.9869 41.71 37.0024 41.095 38.1845 40.705C38.3361 40.645 38.4574 40.435 38.4574 40.195C38.4877 39.835 38.4877 39.82 38.5483 40.105C38.5786 40.3 38.6999 40.45 38.7908 40.435C38.8969 40.435 39.7305 40.135 40.6399 39.775C41.5644 39.415 42.3677 39.115 42.4283 39.115C42.4889 39.1 42.7466 39.205 42.9891 39.325ZM14.95 40.825C14.95 41.035 15.0561 41.215 15.2228 41.26C15.7836 41.425 19.3605 41.695 21.2702 41.71C22.3766 41.71 23.2859 41.77 23.2859 41.815C23.2859 42.325 21.9219 42.34 17.0719 41.935C16.0261 41.845 15.0561 41.71 14.9197 41.635C14.7227 41.53 14.6469 41.305 14.6469 40.885C14.6469 40.525 14.7075 40.315 14.7984 40.375C14.8894 40.42 14.95 40.63 14.95 40.825ZM32.7889 42.175C33.3497 42.565 33.668 43.675 33.6528 45.1C33.6225 47.065 32.9859 48.4 32.0766 48.4C31.243 48.4 30.7277 47.305 30.7125 45.505C30.7125 43.96 30.9399 43.09 31.5461 42.46C32.0917 41.89 32.3039 41.845 32.7889 42.175ZM18.5875 43.15C20.8003 43.315 23.3769 43.48 24.3014 43.54C25.3472 43.6 26.0747 43.705 26.1656 43.825C26.2414 43.93 26.3475 44.335 26.393 44.74L26.4839 45.475L26.1808 44.935C26.0141 44.65 25.7867 44.335 25.6806 44.23C25.5594 44.14 23.9831 43.975 21.9977 43.84C20.0728 43.72 17.3295 43.525 15.9049 43.42L13.2828 43.24L12.813 43.585L12.3583 43.93L12.6159 43.42C12.9494 42.76 13.0706 42.715 13.8739 42.79C14.268 42.82 16.3747 42.985 18.5875 43.15ZM16.693 45.175C17.86 45.295 20.1486 45.46 21.7703 45.55C23.392 45.64 25.0744 45.82 25.4988 45.94C25.9231 46.06 26.7113 46.15 27.2417 46.165C27.7722 46.165 28.3481 46.225 28.5149 46.3C28.9544 46.48 24.453 46.48 21.543 46.3C18.7845 46.12 14.2074 45.64 12.525 45.37L11.3883 45.175L12.1461 45.085C13.495 44.92 14.5256 44.95 16.693 45.175ZM29.8638 47.38C29.7425 47.995 29.4242 48.25 28.8331 48.235L28.3633 48.22L28.8483 48.01C29.1211 47.905 29.4394 47.605 29.5758 47.35C29.8789 46.765 29.9699 46.78 29.8638 47.38Z" fill="white"/>
<path d="M41.337 25.825C39.5486 26.185 38.0329 26.545 37.942 26.635C37.8359 26.74 37.8662 27.49 38.0481 28.93C38.3967 31.81 38.4422 32.065 38.6847 32.155C38.8059 32.2 40.5489 31.72 42.5495 31.075C44.5653 30.445 46.3083 29.965 46.4144 30.01C46.7023 30.115 46.6872 29.59 46.3386 27.655C45.9597 25.555 45.7929 25.225 45.1109 25.195C44.8229 25.18 43.1254 25.465 41.337 25.825ZM45.5353 25.645C45.6262 25.75 45.8536 26.635 46.0354 27.595C46.3234 29.11 46.3386 29.395 46.1567 29.56C45.899 29.815 43.5043 30.595 43.2618 30.52C43.1709 30.49 43.0042 30.19 42.9133 29.86C42.7314 29.29 42.7314 29.29 42.5798 29.65C42.4434 29.98 42.4131 29.95 42.3222 29.275C42.2615 28.855 42.11 28 41.9887 27.355C41.8523 26.71 41.7917 26.14 41.8372 26.095C41.9584 25.975 44.3531 25.48 44.8987 25.465C45.1564 25.45 45.4444 25.54 45.5353 25.645ZM41.534 26.32C41.625 26.47 42.0342 28.885 42.1706 30.04L42.2615 30.94L40.8217 31.36C39.3667 31.795 38.8968 31.825 38.7756 31.48C38.7453 31.375 38.8059 31.33 38.9423 31.375C39.109 31.45 41.7311 30.79 41.8826 30.64C41.9129 30.61 41.8523 30.085 41.7614 29.455L41.5947 28.33L41.1097 28.6C40.852 28.75 40.3518 28.945 40.0033 29.035C39.6547 29.14 39.1697 29.38 38.912 29.59L38.4573 29.965L38.3512 29.245C38.2906 28.855 38.23 28.12 38.23 27.625L38.2148 26.725L39.5031 26.485C41.0036 26.185 41.4279 26.155 41.534 26.32Z" fill="white"/>
<path d="M43.5498 25.975C43.0648 26.08 42.5798 26.245 42.4889 26.35C42.3525 26.5 42.3676 26.515 42.6101 26.44C42.7769 26.395 43.368 26.26 43.9287 26.155C44.9897 25.93 45.2625 26.005 45.2625 26.515C45.2625 26.89 44.2319 27.64 43.565 27.76C43.2467 27.82 42.9891 27.94 42.9891 28.03C42.9891 28.585 43.3528 30.1 43.4741 30.1C43.8681 30.1 45.702 29.47 45.8536 29.29C45.99 29.14 45.9597 28.72 45.7323 27.565C45.5656 26.725 45.3837 25.975 45.3383 25.9C45.217 25.705 44.6562 25.735 43.5498 25.975Z" fill="white"/>
<path d="M33.9862 27.88C33.8498 28.15 33.4558 29.41 33.1223 30.685C32.6525 32.425 32.5312 33.16 32.5919 33.595C32.6525 33.925 32.7283 34.255 32.7737 34.315C32.804 34.375 33.1981 34.27 33.6376 34.075C34.062 33.865 34.5773 33.7 34.7592 33.7C34.9411 33.7 35.2139 33.58 35.3654 33.43C35.517 33.28 35.9262 33.04 36.29 32.875C36.7144 32.695 36.9569 32.485 37.0175 32.245C37.0781 32.05 37.0326 31.015 36.9265 29.95C36.8356 28.885 36.7901 27.94 36.8508 27.85C36.9872 27.625 36.4719 27.67 35.6231 27.94C34.6531 28.27 34.4864 28.42 33.9711 29.5C33.7286 29.995 33.5164 30.37 33.4709 30.34C33.38 30.235 34.1984 27.865 34.3651 27.775C34.5319 27.655 34.547 27.4 34.3803 27.4C34.3045 27.4 34.1378 27.625 33.9862 27.88ZM35.2594 32.35V33.25L34.7744 33.235C34.4106 33.22 34.3651 33.19 34.6228 33.145C34.9108 33.085 34.9562 32.98 34.9562 32.425V31.765L34.3954 31.855C33.5315 31.99 33.4103 32.14 33.4709 33.055C33.5012 33.715 33.4709 33.85 33.2587 33.85C33.0465 33.85 33.0162 33.715 33.0769 32.845C33.1526 31.675 33.38 31.33 34.1833 31.27C35.1078 31.18 35.2594 31.345 35.2594 32.35Z" fill="white"/>
<path d="M38.7453 43.675C34.8805 45.325 33.9559 45.805 34.2136 46.06C34.2591 46.105 35.3049 45.7 36.5477 45.175C37.7905 44.635 38.8666 44.215 38.9575 44.245C39.0484 44.275 39.2 44.215 39.2758 44.11C39.4425 43.915 42.9284 42.4 43.2316 42.4C43.3377 42.4 43.3831 42.28 43.3377 42.1C43.2922 41.935 43.2164 41.8 43.1558 41.815C43.1103 41.83 41.1249 42.655 38.7453 43.675Z" fill="white"/>
<path d="M44.8381 38.08C44.5956 38.32 44.6108 38.515 44.8684 38.41C44.9897 38.365 45.1867 38.485 45.3231 38.68C45.6566 39.13 45.6263 39.235 45.2322 39.145L44.8836 39.07L45.2322 39.31C45.8384 39.775 45.5656 41.5 44.9442 41.11C44.823 41.05 44.8078 41.065 44.8684 41.17C44.9291 41.26 44.8836 41.47 44.7775 41.635C44.6411 41.875 44.6259 41.98 44.7624 42.115C45.0352 42.385 45.3989 42.16 45.6566 41.545C46.0052 40.75 45.8991 38.65 45.505 38.215C45.1716 37.855 45.0806 37.84 44.8381 38.08ZM45.4141 41.65C45.3231 41.815 45.1867 41.95 45.1109 41.95C45.02 41.95 45.0352 41.815 45.1413 41.65C45.2474 41.485 45.3838 41.35 45.4595 41.35C45.5202 41.35 45.505 41.485 45.4141 41.65Z" fill="white"/>
<path d="M44.8381 40.21C44.8836 40.87 45.1716 41.095 45.308 40.57C45.3838 40.33 45.308 40.135 45.0958 39.925L44.7927 39.625L44.8381 40.21Z" fill="white"/>
<path d="M31.5461 42.91C31.3036 43.27 31.0156 44.125 31.0156 44.455C31.0156 44.56 31.1217 44.605 31.243 44.56C31.4248 44.485 31.44 44.41 31.3036 44.26C31.1369 44.065 31.2278 43.99 31.5158 44.035C31.5915 44.05 31.6067 43.93 31.5612 43.78C31.5006 43.615 31.5612 43.42 31.6976 43.3C31.8947 43.135 31.9856 43.165 32.2281 43.45C32.5767 43.855 32.6222 44.08 32.319 43.96C32.0159 43.84 31.7734 44.365 31.7734 45.13C31.7734 45.955 31.9401 46.21 32.3797 46.075C32.6828 45.985 32.698 46 32.5464 46.285C32.4403 46.465 32.3039 46.6 32.2281 46.6C32.0462 46.6 31.6219 46.165 31.6219 45.97C31.6219 45.895 31.5309 45.85 31.4097 45.895C31.1672 45.985 30.955 45.445 31.1823 45.31C31.2581 45.265 31.2733 45.16 31.2278 45.07C30.8337 44.44 30.9247 46.615 31.3187 47.335C31.5915 47.845 32.0008 47.98 32.3342 47.68C32.4858 47.545 32.5464 47.47 32.4706 47.53C32.122 47.8 32.122 47.605 32.4555 47.005C33.092 45.835 33.0617 44.185 32.3797 43.27C32.0008 42.745 32.0614 42.595 32.5615 42.865C32.8798 43.03 32.895 43.03 32.698 42.805C32.3948 42.43 31.8189 42.49 31.5461 42.91ZM32.5464 44.68C32.6676 45.13 32.5464 45.88 32.3797 45.775C32.319 45.745 32.3039 45.55 32.3342 45.355C32.3797 45.16 32.3039 44.92 32.1675 44.815C31.925 44.62 32.0008 44.155 32.2736 44.245C32.3645 44.275 32.4858 44.47 32.5464 44.68Z" fill="white"/>
</g>
<defs>
<clipPath id="clip0_12_2">
<rect width="60" height="60" fill="white"/>
</clipPath>
</defs>
</svg>
