<svg width="30" height="30" viewBox="0 0 30 30" fill="none" xmlns="http://www.w3.org/2000/svg">
<g clip-path="url(#clip0_10_9)">
<path d="M23.9012 18.8478C22.7876 18.2736 21.6329 17.7703 20.445 17.3413C20.061 17.1641 19.677 17.0754 19.389 17.5185C19.101 17.9616 18.0449 19.025 17.7569 19.3795C17.627 19.5168 17.4448 19.6026 17.2481 19.6191C17.0515 19.6356 16.8555 19.5815 16.7009 19.4681C15.2297 18.9082 13.8677 18.1299 12.6687 17.164C11.5677 16.2398 10.6285 15.1636 9.88464 13.9738C9.83146 13.9048 9.79412 13.8265 9.77495 13.7437C9.75577 13.6609 9.75516 13.5754 9.77315 13.4924C9.79114 13.4094 9.82734 13.3306 9.87954 13.261C9.93174 13.1914 9.99882 13.1324 10.0767 13.0876L10.8447 12.2014C11.0386 11.9862 11.2001 11.7477 11.3247 11.4925C11.4005 11.3712 11.4405 11.2337 11.4405 11.0937C11.4405 10.9537 11.4005 10.8161 11.3247 10.6949C11.1327 10.429 10.1727 8.21357 9.78864 7.23876C9.40463 6.26396 8.92461 6.44119 8.6366 6.44119H7.67656C7.41508 6.43763 7.1565 6.49212 6.92259 6.60008C6.68869 6.70803 6.48632 6.86629 6.33251 7.06152C5.75975 7.54113 5.30811 8.13101 5.0095 8.78947C4.7109 9.44793 4.57262 10.1589 4.60445 10.8721C4.77183 12.6113 5.47099 14.2709 6.62052 15.6575C6.90854 15.9234 10.1727 20.6202 15.1648 22.5698C16.0882 22.9805 17.0528 23.307 18.0449 23.5446C19.0659 23.8588 20.1584 23.9199 21.2131 23.7218C22.1731 23.6332 24.1892 22.6584 24.5732 21.595C24.9572 20.5316 25.0532 19.5568 24.8612 19.3795C24.602 19.1222 24.2691 18.9378 23.9012 18.8478Z" fill="white"/>
</g>
<defs>
<clipPath id="clip0_10_9">
<rect width="26" height="24" fill="white" transform="translate(2 3)"/>
</clipPath>
</defs>
</svg>
