<svg width="30" height="30" viewBox="0 0 30 30" fill="none" xmlns="http://www.w3.org/2000/svg">
<g clip-path="url(#clip0_16_2)">
<path d="M25.1384 3.72651C24.4442 3.09068 21.6325 1.04668 15.371 1.01985C15.371 1.01985 7.98253 0.577679 4.38336 3.88051C2.38136 5.88251 1.6802 8.81434 1.5997 12.4508C1.5192 16.0873 1.42936 22.903 7.99886 24.7557H8.0047L7.99886 27.5778C7.99886 27.5778 7.9557 28.7212 8.70703 28.951C9.6147 29.2357 10.1514 28.3653 11.0205 27.4297C11.4965 26.9152 12.1522 26.1615 12.6504 25.5863C13.3504 25.6552 14.1624 25.6937 14.9849 25.6937C17.1164 25.6937 19.1872 25.4312 21.1659 24.9365L20.9909 24.9738C21.8985 24.6787 27.0342 24.0218 27.8649 17.2073C28.7329 10.1723 27.4519 5.73434 25.1384 3.72651ZM25.899 16.694C25.1909 22.3815 21.0305 22.7432 20.2652 22.9882C18.5945 23.4128 16.6765 23.6555 14.7014 23.6555C14.1344 23.6555 13.572 23.6357 13.0155 23.596L13.0902 23.6007C13.0902 23.6007 10.2459 27.0295 9.36036 27.9208C9.07103 28.2102 8.75253 28.1868 8.75836 27.6093C8.75836 27.2325 8.78053 22.9217 8.78053 22.9217C3.21903 21.3793 3.54103 15.574 3.60636 12.5418C3.6717 9.50968 4.24103 7.01768 5.9362 5.34468C8.98353 2.58318 15.2567 2.99268 15.2567 2.99268C20.5569 3.01485 23.0944 4.61201 23.6847 5.14751C25.6377 6.82168 26.6329 10.8268 25.899 16.694ZM18.3029 12.2747V12.291C18.3029 12.487 18.1442 12.6457 17.9482 12.6457C17.758 12.6457 17.6029 12.4963 17.5947 12.3085C17.5994 12.2595 17.6029 12.2 17.6029 12.1428C17.6029 11.2083 16.8457 10.4512 15.9112 10.4512C15.8762 10.4512 15.8412 10.4523 15.8074 10.4547H15.812C15.6242 10.4442 15.476 10.2902 15.476 10.1012C15.476 9.90518 15.6347 9.74651 15.8307 9.74651H15.8505H15.8494C15.8727 9.74534 15.9019 9.74535 15.9299 9.74535C17.2435 9.74535 18.3075 10.8093 18.3075 12.123C18.3075 12.1767 18.3052 12.2303 18.3017 12.2828V12.2758L18.3029 12.2747ZM19.4124 12.8942C19.4672 10.5748 18.0182 8.75951 15.2672 8.55651C15.0817 8.54368 14.937 8.38968 14.937 8.20301C14.937 8.00701 15.0957 7.84834 15.2917 7.84834C15.2999 7.84834 15.3092 7.84834 15.3174 7.84951H15.3162H15.336C17.9809 7.84951 20.1264 9.99385 20.1264 12.6398C20.1264 12.7343 20.124 12.8288 20.1182 12.9222L20.1194 12.9093C20.1147 13.1018 19.9584 13.2547 19.7659 13.2547C19.5699 13.2547 19.4112 13.096 19.4112 12.9C19.4112 12.8965 19.4112 12.8942 19.4112 12.8907L19.4124 12.8942ZM21.979 13.628V13.6303C21.979 13.8263 21.8204 13.985 21.6244 13.985C21.4284 13.985 21.272 13.8275 21.2709 13.6338C21.2429 9.17485 18.269 6.74701 14.6652 6.72134C14.4692 6.72134 14.3117 6.56268 14.3117 6.36785C14.3117 6.17301 14.4704 6.01434 14.6652 6.01434C18.7007 6.04234 21.944 8.82718 21.9767 13.6268L21.979 13.628ZM21.3665 18.9923V19.0028C20.7762 20.0423 19.6714 21.1903 18.5339 20.824L18.5234 20.8077C16.386 20.0097 14.538 18.9667 12.8872 17.6822L12.935 17.7172C12.0682 17.0265 11.3064 16.2647 10.6379 15.427L10.6157 15.3978C10.0219 14.6535 9.46536 13.8205 8.98003 12.9408L8.93336 12.8487C8.4002 11.9783 7.91836 10.9727 7.54153 9.91685L7.50653 9.80251C7.1402 8.66501 8.28236 7.56018 9.3277 6.96985H9.3382C9.48986 6.87301 9.6742 6.81468 9.87253 6.81468C10.184 6.81468 10.4617 6.95818 10.6449 7.18101L10.646 7.18335C10.646 7.18335 11.3239 7.99184 11.6144 8.39201C11.8874 8.76418 12.2549 9.36035 12.445 9.69285C12.5547 9.86435 12.6189 10.0743 12.6189 10.2995C12.6189 10.6355 12.4742 10.9377 12.2432 11.1465L12.242 11.1477L11.5864 11.6727C11.4055 11.8477 11.2935 12.0927 11.2935 12.3633C11.2935 12.3902 11.2947 12.4158 11.297 12.4415V12.438C11.9725 14.6582 13.6864 16.372 15.8587 17.0358L15.9077 17.0487C15.9299 17.051 15.9567 17.0522 15.9824 17.0522C16.253 17.0522 16.498 16.9402 16.673 16.7605L17.198 16.1048C17.408 15.8727 17.7102 15.728 18.0462 15.728C18.2714 15.728 18.4802 15.7933 18.6575 15.9053L18.6529 15.903C19.6014 16.4432 20.4215 17.037 21.1694 17.7102L21.1565 17.6985C21.3805 17.8782 21.5217 18.1523 21.5217 18.4592C21.5217 18.6563 21.4634 18.8395 21.3619 18.9935L21.3642 18.99L21.3665 18.9923Z" fill="white"/>
</g>
<defs>
<clipPath id="clip0_16_2">
<rect width="28" height="28" fill="white" transform="translate(1 1)"/>
</clipPath>
</defs>
</svg>
