<svg width="30" height="30" viewBox="0 0 30 30" fill="none" xmlns="http://www.w3.org/2000/svg">
<g clip-path="url(#clip0_7_20)">
<path d="M24.3125 5.72499C22.4893 4.0184 20.1652 2.8544 17.6336 2.38005C15.102 1.90569 12.4765 2.14225 10.0889 3.05985C7.70129 3.97744 5.6586 5.5349 4.21889 7.53549C2.77918 9.53607 2.00704 11.89 2 14.3C1.97152 16.4343 2.57727 18.5342 3.75 20.3667L1.875 26.6667L8.8125 24.975C10.7267 25.9549 12.8794 26.4572 15.0625 26.4333C17.6376 26.4431 20.1577 25.7389 22.3034 24.41C24.449 23.0811 26.1234 21.1873 27.1143 18.969C28.1052 16.7506 28.3679 14.3076 27.8691 11.9497C27.3703 9.59184 26.1324 7.42534 24.3125 5.72499ZM15.0625 24.3917C12.954 24.4058 10.8882 23.8375 9.125 22.7583L5 23.8083L6.125 20.075C4.88256 18.3707 4.20841 16.3613 4.1875 14.3C4.17512 12.2901 4.8024 10.322 5.98981 8.64515C7.17722 6.96833 8.8713 5.65831 10.8573 4.88112C12.8434 4.10394 15.0319 3.8946 17.1455 4.27962C19.2592 4.66465 21.2028 5.62672 22.7299 7.04387C24.2571 8.46102 25.299 10.2695 25.7237 12.2399C26.1484 14.2104 25.9368 16.2542 25.1155 18.1123C24.2943 19.9704 22.9005 21.559 21.1108 22.6769C19.3211 23.7948 17.216 24.3916 15.0625 24.3917Z" fill="white"/>
<path d="M21 16.8667C20.275 16.4887 19.5233 16.1574 18.75 15.875C18.5 15.7583 18.25 15.7 18.0625 15.9917C17.875 16.2833 17.1875 16.9833 17 17.2167C16.9154 17.307 16.7968 17.3635 16.6687 17.3743C16.5407 17.3852 16.4131 17.3496 16.3125 17.275C15.3547 16.9064 14.468 16.3941 13.6875 15.7583C12.9707 15.15 12.3593 14.4415 11.875 13.6583C11.8404 13.6129 11.8161 13.5614 11.8036 13.5069C11.7911 13.4524 11.7907 13.3961 11.8024 13.3415C11.8141 13.2868 11.8377 13.235 11.8717 13.1892C11.9056 13.1433 11.9493 13.1045 12 13.075L12.5 12.4917C12.6262 12.35 12.7314 12.193 12.8125 12.025C12.8619 11.9452 12.8878 11.8547 12.8878 11.7625C12.8878 11.6704 12.8619 11.5798 12.8125 11.5C12.6875 11.325 12.0625 9.86667 11.8125 9.22501C11.5625 8.58334 11.25 8.70001 11.0625 8.70001H10.4375C10.2673 8.69766 10.0989 8.73353 9.94664 8.80459C9.79436 8.87565 9.66261 8.97983 9.56248 9.10834C9.18961 9.42404 8.89558 9.81233 8.70118 10.2458C8.50678 10.6792 8.41676 11.1472 8.43748 11.6167C8.54645 12.7615 9.00161 13.8539 9.74998 14.7667C9.93748 14.9417 12.0625 18.0333 15.3125 19.3167C15.9136 19.587 16.5416 19.8019 17.1875 19.9583C17.8522 20.1652 18.5634 20.2054 19.25 20.075C19.875 20.0167 21.1875 19.375 21.4375 18.675C21.6875 17.975 21.75 17.3333 21.625 17.2167C21.4562 17.0473 21.2395 16.9259 21 16.8667Z" fill="white"/>
</g>
<defs>
<clipPath id="clip0_7_20">
<rect width="30" height="28" fill="white" transform="translate(0 1)"/>
</clipPath>
</defs>
</svg>
